<svg width="1239" height="498" viewBox="0 0 1239 498" fill="none" xmlns="http://www.w3.org/2000/svg">
<path d="M999.711 342.09V416.59H981.411L960.711 381.89C957.811 376.99 954.411 369.19 954.411 369.19H954.211C954.211 369.19 955.011 377.19 955.011 381.89V416.59H936.711V342.09H955.111L975.711 376.89C978.611 381.79 981.911 389.59 981.911 389.59H982.111C982.111 389.59 981.311 381.59 981.311 376.89V342.09H999.711ZM1004.81 336.89H999.611H981.411H976.211V342.09V367.49L959.611 339.49L958.111 336.99H955.211H936.711H931.511V342.19V416.69V421.89H936.711H954.911H960.111V416.69V391.19L976.811 419.19L978.311 421.69H981.211H999.511H1004.71V416.49V341.99V336.89H1004.81Z" fill="#EC1B2E"/>
<path d="M864.511 340.79C887.011 340.79 903.511 357.49 903.511 378.79C903.511 400.69 887.011 417.79 864.511 417.79C842.011 417.79 825.511 400.69 825.511 378.79C825.511 357.49 842.011 340.79 864.511 340.79ZM864.511 401.19C875.611 401.19 884.611 391.59 884.611 378.89C884.611 366.69 875.611 357.49 864.511 357.49C853.411 357.49 844.411 366.69 844.411 378.89C844.411 391.59 853.311 401.19 864.511 401.19ZM864.511 335.69C852.311 335.69 841.111 340.09 832.911 348.19C824.811 356.19 820.311 367.09 820.311 378.89C820.311 390.89 824.811 401.99 832.811 410.19C841.011 418.49 852.211 422.99 864.411 422.99C876.611 422.99 887.811 418.39 896.011 410.19C904.111 401.99 908.511 390.89 908.511 378.89C908.511 367.09 904.011 356.19 895.911 348.19C887.811 340.09 876.611 335.69 864.511 335.69ZM864.511 395.99C856.111 395.99 849.611 388.49 849.611 378.89C849.611 369.69 856.011 362.69 864.511 362.69C873.011 362.69 879.411 369.69 879.411 378.89C879.411 388.49 872.811 395.99 864.511 395.99Z" fill="#EC1B2E"/>
<path d="M792.211 342.09V416.59H774.011V342.09H792.211ZM797.411 336.89H792.211H774.011H768.811V342.09V416.59V421.79H774.011H792.211H797.411V416.59V342.09V336.89Z" fill="#EC1B2E"/>
<path d="M735.511 342.09V416.59H717.211L696.511 381.89C693.611 376.99 690.211 369.19 690.211 369.19H690.011C690.011 369.19 690.811 377.19 690.811 381.89V416.59H672.611V342.09H691.011L711.611 376.89C714.511 381.79 717.811 389.59 717.811 389.59H718.011C718.011 389.59 717.211 381.59 717.211 376.89V342.09H735.511ZM740.711 336.89H735.511H717.311H712.111V342.09V367.49L695.511 339.49L694.011 336.99H691.111H672.711H667.511V342.19V416.69V421.89H672.711H690.911H696.111V416.69V391.19L712.811 419.19L714.311 421.69H717.211H735.511H740.711V416.49V341.99V336.89Z" fill="#EC1B2E"/>
<path d="M636.211 342.09V389.19C636.211 405.99 623.911 417.79 605.211 417.79C586.211 417.79 574.011 405.89 574.011 389.19V342.09H592.211V389.19C592.211 396.99 597.311 401.19 605.111 401.19C612.911 401.19 618.011 396.99 618.011 389.19V342.09H636.211ZM641.411 336.89H636.211H618.011H612.811V342.09V389.19C612.811 392.09 612.011 395.99 605.111 395.99C598.211 395.99 597.411 392.09 597.411 389.19V342.09V336.89H592.211H574.011H568.811V342.09V389.19C568.811 409.09 583.811 422.99 605.211 422.99C626.511 422.99 641.411 409.09 641.411 389.19V342.09V336.89Z" fill="#EC1B2E"/>
<path d="M1213.71 243.99C1209.21 242.19 1204.21 240.29 1204.21 238.39C1204.21 235.19 1209.01 235.19 1209.51 235.19C1217.31 235.19 1224.21 241.09 1224.31 241.09L1226.81 243.29L1228.31 240.39L1236.01 225.49L1236.81 223.89L1235.51 222.59C1235.11 222.19 1226.61 213.29 1209.71 213.29C1192.91 213.29 1180.81 223.99 1180.81 238.69C1180.81 254.59 1194.71 260.39 1204.91 264.59C1208.91 266.19 1214.31 268.49 1214.31 270.19C1214.31 273.09 1211.01 273.49 1209.11 273.49C1200.91 273.49 1193.11 266.49 1193.01 266.49L1190.81 264.49L1189.11 266.89L1179.51 280.79L1178.31 282.49L1179.71 283.99C1180.11 284.49 1190.41 295.49 1208.81 295.49C1217.41 295.49 1224.71 292.89 1230.01 287.89C1234.91 283.19 1237.61 276.79 1237.61 269.79C1237.71 253.49 1223.81 247.99 1213.71 243.99Z" fill="#EC1B2E"/>
<path d="M1146.01 264.29C1145.41 263.29 1144.91 262.39 1144.51 261.69C1150.81 257.29 1154.71 249.29 1154.71 240.49C1154.71 228.89 1149.11 220.19 1139.31 216.39C1135.61 214.99 1131.61 214.49 1123.91 214.49H1098.01H1095.41V217.09V291.59V294.19H1098.01H1116.21H1118.81V291.59V269.09H1123.21L1135.71 292.79L1136.41 294.19H1138.01H1158.31H1162.71L1160.61 290.39L1146.01 264.29ZM1131.01 241.69C1131.01 246.09 1128.71 248.29 1124.11 248.29H1118.81V235.39H1122.41C1130.41 235.29 1131.01 237.79 1131.01 241.69Z" fill="#EC1B2E"/>
<path d="M1038.61 273.29V264.49H1058.71H1061.31V261.89V246.19V243.69H1058.71H1038.61V235.29H1064.41H1067.01V232.69V217.09V214.49H1064.41H1017.71H1015.21V217.09V291.59V294.09H1017.71H1065.91H1068.51V291.59V275.89V273.29H1065.91H1038.61Z" fill="#EC1B2E"/>
<path d="M966.411 214.49H963.811V217.09V244.29H941.911V217.09V214.49H939.311H921.111H918.511V217.09V291.59V294.09H921.111H939.311H941.911V291.59V264.99H963.811V291.59V294.09H966.411H984.611H987.211V291.59V217.09V214.49H984.611H966.411Z" fill="#EC1B2E"/>
<path d="M885.911 265.49L884.111 262.89L881.911 265.19C881.811 265.29 874.011 273.49 864.011 273.49C851.911 273.49 845.511 263.49 845.511 253.69C845.511 244.39 851.211 234.99 864.011 234.99C873.111 234.99 880.811 241.89 880.911 241.89L883.211 243.99L884.811 241.29L893.211 227.59L894.211 225.99L892.911 224.59C892.511 224.09 882.411 213.19 863.111 213.19C839.411 213.19 821.511 230.79 821.511 254.09C821.511 265.59 825.611 275.99 833.011 283.49C840.611 291.09 851.311 295.29 863.111 295.29C883.511 295.29 894.611 282.39 895.111 281.89L896.411 280.39L895.311 278.79L885.911 265.49Z" fill="#EC1B2E"/>
<path d="M782.111 216.19L781.511 214.39H779.611H760.411H758.511L757.911 216.19L732.711 290.69L731.511 294.09H735.111H753.811H755.811L756.311 292.19L760.211 278.49H779.711L783.711 292.29L784.211 294.19H786.111H804.811H808.411L807.211 290.79L782.111 216.19ZM773.911 258.79H766.111L769.411 247.59C769.611 246.89 769.811 246.09 770.011 245.19C770.211 245.99 770.411 246.79 770.611 247.59L773.911 258.79Z" fill="#EC1B2E"/>
<path d="M681.011 273.29V264.49H701.111H703.711V261.89V246.19V243.69H701.111H681.011V235.29H706.811H709.411V232.69V217.09V214.49H706.811H660.211H657.611V217.09V291.59V294.09H660.211H708.311H710.911V291.59V275.89V273.29H708.311H681.011Z" fill="#EC1B2E"/>
<path d="M566.611 214.49H564.111V217.09V232.69V235.29H566.611H586.711V291.59V294.09H589.211H607.511H610.111V291.59V235.29H630.111H632.711V232.69V217.09V214.49H630.111H566.611Z" fill="#EC1B2E"/>
<path d="M1156.91 90.7904C1179.41 90.7904 1195.91 107.49 1195.91 128.79C1195.91 150.69 1179.41 167.79 1156.91 167.79C1134.41 167.79 1117.91 150.69 1117.91 128.79C1117.91 107.49 1134.41 90.7904 1156.91 90.7904ZM1156.91 151.09C1168.01 151.09 1177.01 141.49 1177.01 128.79C1177.01 116.59 1168.01 107.39 1156.91 107.39C1145.81 107.39 1136.81 116.59 1136.81 128.79C1136.81 141.49 1145.81 151.09 1156.91 151.09ZM1156.91 85.5904C1144.71 85.5904 1133.51 89.9904 1125.31 98.0904C1117.21 106.09 1112.71 116.99 1112.71 128.79C1112.71 140.79 1117.21 151.89 1125.21 160.09C1133.41 168.39 1144.61 172.89 1156.81 172.89C1169.01 172.89 1180.21 168.29 1188.41 160.09C1196.51 151.89 1200.91 140.79 1200.91 128.79C1200.91 116.99 1196.41 106.09 1188.31 98.0904C1180.31 90.0904 1169.11 85.5904 1156.91 85.5904ZM1156.91 145.99C1148.51 145.99 1142.01 138.49 1142.01 128.89C1142.01 119.69 1148.41 112.69 1156.91 112.69C1165.41 112.69 1171.81 119.69 1171.81 128.89C1171.81 138.39 1165.31 145.99 1156.91 145.99Z" fill="#EC1B2E"/>
<path d="M1055.01 90.7904C1074.11 90.7904 1083.61 100.69 1083.61 100.69L1074.91 114.29C1074.91 114.29 1067.31 107.39 1056.81 107.39C1041.21 107.39 1034.81 117.39 1034.81 128.39C1034.81 142.59 1044.61 150.99 1056.21 150.99C1065.01 150.99 1071.31 145.59 1071.31 145.59V139.89H1060.71V124.39H1087.41V166.49H1072.21V164.39C1072.21 162.79 1072.31 161.29 1072.31 161.29H1072.11C1072.11 161.29 1064.91 167.79 1052.51 167.79C1033.41 167.79 1015.91 153.49 1015.91 129.19C1015.91 107.49 1032.31 90.7904 1055.01 90.7904ZM1055.01 85.5904C1029.81 85.5904 1010.81 104.29 1010.81 129.09C1010.81 141.99 1015.21 153.09 1023.51 161.29C1031.21 168.79 1041.51 172.99 1052.51 172.99C1058.41 172.99 1063.31 171.69 1067.01 170.19V171.69H1072.21H1087.41H1092.61V166.49V124.39V119.19H1087.41H1077.91L1079.31 117.09L1088.01 103.49L1090.21 99.9904L1087.31 97.0904C1086.91 96.5904 1076.01 85.5904 1055.01 85.5904ZM1056.11 145.99C1048.01 145.99 1039.91 140.59 1039.91 128.59C1039.91 122.69 1042.11 112.69 1056.71 112.69C1065.01 112.69 1071.31 118.19 1071.41 118.19L1072.61 119.29H1060.71H1055.51V124.49V139.99V145.19H1060.71H1061.21C1059.71 145.59 1058.01 145.99 1056.11 145.99Z" fill="#EC1B2E"/>
<path d="M966.811 92.0904L970.648 103.391L992.111 166.59H973.411L968.811 150.99H945.611L941.111 166.59H922.411L947.711 92.0904H966.811ZM949.811 136.29H964.511L960.311 121.79C958.911 117.09 957.311 108.99 957.311 108.99H957.111C957.111 108.99 955.411 117.09 954.111 121.79L949.811 136.29ZM970.511 86.8904H966.811H947.611H943.911L942.711 90.3904L917.411 164.89L915.111 171.69H922.311H941.011H944.911L946.011 167.99L949.411 156.09H964.911L968.411 167.99L969.511 171.69H973.411H992.111H999.311L997.011 164.89L971.711 90.3904L970.511 86.8904Z" fill="#EC1B2E"/>
<path d="M899.711 152.29L890.311 138.99L886.611 133.79L882.211 138.49C882.111 138.59 875.011 145.99 866.211 145.99C855.811 145.99 850.311 137.29 850.311 128.79C850.311 121.39 854.511 112.69 866.211 112.69C874.311 112.69 881.311 118.89 881.411 118.99L886.011 123.19L889.311 117.89L897.711 104.19L899.711 100.89L897.111 97.9904C896.711 97.4904 885.811 85.7904 865.311 85.7904C853.111 85.7904 841.911 90.2904 833.711 98.2904C825.511 106.39 821.011 117.39 821.011 129.29C821.011 154.69 839.611 173.09 865.211 173.09C886.811 173.09 898.711 159.29 899.211 158.79L901.811 155.79L899.711 152.29ZM865.511 167.79C842.211 167.79 826.411 151.19 826.411 129.19C826.411 107.49 843.111 90.8904 865.511 90.8904C883.911 90.8904 893.411 101.39 893.411 101.39L885.011 115.09C885.011 115.09 876.711 107.49 866.411 107.49C852.111 107.49 845.411 117.99 845.411 128.69C845.411 139.69 852.711 151.09 866.411 151.09C877.611 151.09 886.211 141.89 886.211 141.89L895.611 155.19C895.511 155.29 885.011 167.79 865.511 167.79Z" fill="#EC1B2E"/>
<path d="M791.111 92.0904V166.59H772.911V92.0904H791.111ZM796.311 86.8904H791.111H772.911H767.711V92.0904V166.59V171.79H772.911H791.111H796.311V166.59V92.0904V86.8904Z" fill="#EC1B2E"/>
<path d="M732.411 92.0904V166.59H714.211V137.39H687.111V166.59H668.911V92.0904H687.111V121.89H714.211V92.0904H732.411ZM737.611 86.8904H732.411H714.211H709.011V92.0904V116.69H692.311V92.0904V86.8904H687.111H668.911H663.711V92.0904V166.59V171.79H668.911H687.111H692.311V166.59V142.59H709.011V166.59V171.79H714.211H732.411H737.611V166.59V92.0904V86.8904Z" fill="#EC1B2E"/>
<path d="M606.911 90.7904C625.311 90.7904 634.811 101.29 634.811 101.29L626.411 114.99C626.411 114.99 618.111 107.39 607.811 107.39C593.511 107.39 586.811 117.89 586.811 128.59C586.811 139.59 594.111 150.99 607.811 150.99C619.011 150.99 627.611 141.79 627.611 141.79L637.011 155.09C637.011 155.09 626.511 167.59 607.011 167.59C583.711 167.59 567.911 150.99 567.911 128.99C567.911 107.49 584.511 90.7904 606.911 90.7904ZM606.911 85.5904C594.711 85.5904 583.511 90.0904 575.311 98.0904C567.211 106.19 562.711 117.19 562.711 129.19C562.711 154.59 581.311 172.99 606.911 172.99C628.511 172.99 640.411 159.19 640.911 158.69L643.511 155.69L641.211 152.39L631.811 139.09L628.111 133.89L623.711 138.59C623.611 138.69 616.511 146.09 607.711 146.09C597.311 146.09 591.811 137.39 591.811 128.89C591.811 121.49 596.011 112.79 607.711 112.79C615.811 112.79 622.811 118.99 622.911 119.09L627.511 123.29L630.811 117.99L639.211 104.29L641.211 100.99L638.611 98.0904C638.211 97.3904 627.411 85.5904 606.911 85.5904Z" fill="#EC1B2E"/>
<path d="M254.611 418.79C252.911 418.79 251.511 417.39 251.411 415.69C251.311 413.89 252.711 412.49 254.511 412.39C255.011 412.39 255.411 412.39 255.911 412.29C257.711 412.19 259.111 413.59 259.211 415.29C259.311 417.09 257.911 418.49 256.211 418.59C255.711 418.59 255.211 418.59 254.811 418.69C254.711 418.79 254.611 418.79 254.611 418.79ZM240.411 418.69C240.311 418.69 240.311 418.69 240.211 418.69C239.711 418.69 239.211 418.69 238.811 418.59C237.011 418.49 235.711 416.99 235.811 415.19C235.911 413.39 237.411 412.09 239.211 412.19C239.711 412.19 240.111 412.19 240.611 412.29C242.411 412.39 243.711 413.89 243.611 415.59C243.511 417.39 242.111 418.69 240.411 418.69ZM264.511 418.19C262.911 418.19 261.511 416.99 261.311 415.29C261.111 413.59 262.411 411.99 264.211 411.79C264.711 411.79 265.111 411.69 265.611 411.69C267.311 411.49 268.911 412.79 269.111 414.49C269.311 416.19 268.011 417.79 266.311 417.99C265.811 417.99 265.311 418.09 264.911 418.09C264.711 418.19 264.611 418.19 264.511 418.19ZM230.611 417.99C230.511 417.99 230.411 417.99 230.311 417.99C229.811 417.89 229.311 417.89 228.911 417.79C227.211 417.59 225.911 415.99 226.111 414.29C226.311 412.59 227.911 411.29 229.611 411.49C230.111 411.59 230.511 411.59 231.011 411.69C232.711 411.89 234.011 413.39 233.811 415.19C233.511 416.79 232.211 417.99 230.611 417.99ZM279.911 415.99C278.411 415.99 277.111 414.89 276.811 413.39C276.511 411.69 277.611 409.99 279.311 409.69L280.711 409.39C282.411 409.09 284.111 410.19 284.411 411.89C284.711 413.59 283.611 415.29 281.911 415.59L280.511 415.89C280.311 415.89 280.111 415.99 279.911 415.99ZM215.211 415.59C215.011 415.59 214.811 415.59 214.611 415.49L213.211 415.19C211.511 414.79 210.411 413.19 210.711 411.39C211.111 409.69 212.711 408.59 214.511 408.89L215.911 409.19C217.611 409.59 218.711 411.19 218.411 412.99C218.011 414.49 216.711 415.59 215.211 415.59ZM289.511 413.79C288.111 413.79 286.811 412.79 286.411 411.39C286.011 409.69 287.011 407.99 288.711 407.49C289.111 407.39 289.611 407.29 290.011 407.19C291.711 406.79 293.411 407.79 293.911 409.49C294.311 411.19 293.311 412.89 291.611 413.39C291.111 413.49 290.711 413.59 290.211 413.79C290.111 413.79 289.811 413.79 289.511 413.79ZM205.511 413.29C205.211 413.29 205.011 413.29 204.711 413.19L203.311 412.79C201.611 412.29 200.611 410.59 201.111 408.89C201.611 407.19 203.311 406.19 205.011 406.69L206.311 407.09C208.011 407.59 209.011 409.29 208.511 410.99C208.211 412.39 206.911 413.29 205.511 413.29ZM304.411 409.29C303.111 409.29 301.911 408.49 301.411 407.19C300.811 405.49 301.711 403.69 303.311 403.09C303.711 402.89 304.211 402.79 304.611 402.59C306.211 401.99 308.111 402.79 308.711 404.49C309.311 406.09 308.511 407.99 306.811 408.59C306.311 408.79 305.911 408.89 305.411 409.09C305.111 409.19 304.811 409.29 304.411 409.29ZM190.711 408.59C190.311 408.59 190.011 408.49 189.611 408.39C189.111 408.19 188.711 408.09 188.211 407.89C186.611 407.29 185.711 405.39 186.411 403.79C187.011 402.19 188.911 401.29 190.511 401.99C190.911 402.19 191.411 402.29 191.811 402.49C193.411 403.09 194.311 404.89 193.711 406.59C193.211 407.79 192.011 408.59 190.711 408.59ZM313.711 405.69C312.511 405.69 311.311 404.99 310.811 403.79C310.111 402.19 310.911 400.29 312.511 399.59C312.911 399.39 313.311 399.19 313.811 399.09C315.411 398.39 317.311 399.09 318.011 400.69C318.711 402.29 318.011 404.19 316.411 404.89C316.011 405.09 315.511 405.29 315.111 405.49C314.511 405.59 314.111 405.69 313.711 405.69ZM181.511 404.89C181.111 404.89 180.611 404.79 180.211 404.59C179.811 404.39 179.311 404.19 178.911 403.99C177.311 403.29 176.611 401.39 177.311 399.79C178.011 398.19 179.911 397.49 181.511 398.19C181.911 398.39 182.311 398.59 182.811 398.79C184.411 399.49 185.111 401.39 184.411 402.99C183.911 404.19 182.811 404.89 181.511 404.89ZM327.711 398.89C326.611 398.89 325.511 398.29 324.911 397.19C324.111 395.69 324.611 393.69 326.211 392.89C326.611 392.69 327.011 392.49 327.411 392.19C328.911 391.39 330.911 391.89 331.711 393.39C332.511 394.89 332.011 396.89 330.511 397.69C330.111 397.89 329.711 398.19 329.211 398.39C328.711 398.69 328.211 398.89 327.711 398.89ZM167.611 397.99C167.111 397.99 166.511 397.89 166.111 397.59C165.711 397.39 165.311 397.09 164.811 396.89C163.311 395.99 162.711 394.09 163.611 392.59C164.511 391.09 166.411 390.49 167.911 391.39C168.311 391.59 168.711 391.89 169.111 392.09C170.611 392.99 171.211 394.89 170.311 396.39C169.811 397.39 168.711 397.99 167.611 397.99ZM336.311 393.89C335.211 393.89 334.211 393.39 333.611 392.39C332.711 390.89 333.111 388.99 334.611 387.99C335.011 387.79 335.411 387.49 335.811 387.29C337.311 386.39 339.211 386.79 340.211 388.29C341.211 389.79 340.711 391.69 339.211 392.69C338.811 392.99 338.411 393.19 338.011 393.49C337.411 393.69 336.811 393.89 336.311 393.89ZM159.111 392.89C158.511 392.89 157.911 392.69 157.411 392.39C157.011 392.09 156.611 391.89 156.211 391.59C154.711 390.59 154.311 388.69 155.311 387.19C156.311 385.69 158.211 385.29 159.711 386.29C160.111 386.59 160.511 386.79 160.911 386.99C162.411 387.89 162.811 389.89 161.911 391.39C161.211 392.39 160.211 392.89 159.111 392.89ZM349.111 384.99C348.111 384.99 347.211 384.59 346.611 383.69C345.511 382.29 345.811 380.29 347.211 379.19C347.611 378.89 347.911 378.59 348.311 378.39C349.711 377.29 351.711 377.59 352.811 378.99C353.911 380.39 353.611 382.39 352.211 383.49C351.811 383.79 351.411 384.09 351.111 384.39C350.411 384.79 349.811 384.99 349.111 384.99ZM146.411 383.89C145.711 383.89 145.011 383.69 144.511 383.19C144.111 382.89 143.711 382.59 143.411 382.29C142.011 381.19 141.811 379.19 142.911 377.79C144.011 376.39 146.011 376.19 147.411 377.29C147.811 377.59 148.111 377.89 148.511 378.19C149.911 379.29 150.111 381.29 149.111 382.69C148.311 383.49 147.411 383.89 146.411 383.89ZM356.811 378.79C355.911 378.79 355.011 378.39 354.411 377.69C353.311 376.39 353.411 374.39 354.711 373.19C355.111 372.89 355.411 372.59 355.811 372.29C357.111 371.09 359.111 371.29 360.311 372.59C361.511 373.89 361.311 375.89 360.011 377.09C359.611 377.39 359.311 377.69 358.911 377.99C358.311 378.59 357.511 378.79 356.811 378.79ZM138.811 377.59C138.111 377.59 137.311 377.29 136.711 376.79C136.311 376.49 136.011 376.19 135.611 375.79C134.311 374.59 134.211 372.59 135.311 371.29C136.511 369.99 138.511 369.89 139.811 370.99C140.111 371.29 140.511 371.59 140.811 371.89C142.111 373.09 142.311 375.09 141.111 376.39C140.511 377.19 139.711 377.59 138.811 377.59ZM368.111 368.09C367.311 368.09 366.511 367.79 365.911 367.19C364.611 365.99 364.611 363.99 365.811 362.69C366.111 362.39 366.411 361.99 366.811 361.69C368.011 360.39 370.011 360.39 371.311 361.59C372.611 362.79 372.611 364.79 371.411 366.09C371.111 366.39 370.711 366.79 370.411 367.09C369.811 367.79 368.911 368.09 368.111 368.09ZM127.611 366.79C126.811 366.79 125.911 366.49 125.311 365.79C125.011 365.49 124.611 365.09 124.311 364.69C123.111 363.39 123.211 361.39 124.511 360.19C125.811 358.99 127.811 359.09 129.011 360.39C129.311 360.69 129.611 361.09 130.011 361.39C131.211 362.69 131.111 364.69 129.911 365.89C129.211 366.49 128.411 366.79 127.611 366.79ZM374.811 360.79C374.111 360.79 373.311 360.49 372.711 359.99C371.411 358.89 371.211 356.89 372.411 355.49C372.711 355.09 373.011 354.79 373.311 354.39C374.411 353.09 376.411 352.89 377.811 353.99C379.211 355.09 379.311 357.09 378.211 358.49C377.911 358.89 377.611 359.19 377.311 359.59C376.611 360.39 375.711 360.79 374.811 360.79ZM121.011 359.39C120.111 359.39 119.211 358.99 118.611 358.29C118.311 357.89 118.011 357.59 117.711 357.19C116.611 355.79 116.811 353.79 118.111 352.69C119.511 351.59 121.511 351.79 122.611 353.09C122.911 353.49 123.211 353.79 123.511 354.19C124.611 355.49 124.511 357.49 123.111 358.69C122.411 359.19 121.711 359.39 121.011 359.39ZM384.311 348.49C383.711 348.49 383.011 348.29 382.511 347.89C381.111 346.89 380.711 344.89 381.711 343.49C382.011 343.09 382.211 342.69 382.511 342.39C383.511 340.99 385.511 340.59 386.911 341.59C388.311 342.59 388.711 344.59 387.711 345.99C387.411 346.39 387.211 346.79 386.911 347.19C386.311 348.09 385.311 348.49 384.311 348.49ZM111.611 346.99C110.611 346.99 109.611 346.49 109.011 345.59C108.711 345.19 108.511 344.79 108.211 344.39C107.211 342.89 107.611 340.99 109.011 339.99C110.511 338.99 112.411 339.39 113.411 340.79C113.711 341.19 113.911 341.59 114.211 341.89C115.211 343.29 114.811 345.29 113.411 346.29C112.811 346.79 112.211 346.99 111.611 346.99ZM389.811 340.29C389.211 340.29 388.611 340.09 388.111 339.79C386.611 338.89 386.211 336.89 387.111 335.39C387.311 334.99 387.611 334.59 387.811 334.19C388.711 332.69 390.711 332.19 392.211 333.09C393.711 333.99 394.211 335.99 393.311 337.49C393.011 337.89 392.811 338.29 392.511 338.69C391.911 339.79 390.911 340.29 389.811 340.29ZM106.211 338.69C105.111 338.69 104.111 338.19 103.511 337.19L102.811 335.99C101.911 334.49 102.411 332.49 103.911 331.59C105.411 330.69 107.411 331.19 108.311 332.69L109.011 333.89C109.911 335.39 109.411 337.39 107.911 338.29C107.311 338.49 106.711 338.69 106.211 338.69ZM397.411 326.69C396.911 326.69 396.411 326.59 396.011 326.39C394.411 325.59 393.811 323.69 394.611 322.09C394.811 321.69 395.011 321.29 395.211 320.89C396.011 319.29 397.911 318.69 399.411 319.39C401.011 320.19 401.611 322.09 400.911 323.59C400.711 323.99 400.511 324.49 400.311 324.89C399.711 326.09 398.611 326.69 397.411 326.69ZM98.7107 324.99C97.5107 324.99 96.4107 324.29 95.8107 323.19C95.6107 322.79 95.4107 322.29 95.2107 321.89C94.4107 320.29 95.1107 318.39 96.7107 317.69C98.3107 316.89 100.211 317.59 100.911 319.19C101.111 319.59 101.311 319.99 101.511 320.49C102.311 322.09 101.611 323.99 100.011 324.69C99.7107 324.89 99.2107 324.99 98.7107 324.99ZM401.511 317.69C401.111 317.69 400.711 317.59 400.311 317.39C398.711 316.69 397.911 314.79 398.611 313.19C398.811 312.79 399.011 312.39 399.111 311.89C399.811 310.29 401.611 309.49 403.311 310.19C404.911 310.89 405.711 312.69 405.011 314.39C404.811 314.79 404.611 315.29 404.411 315.69C404.011 316.99 402.811 317.69 401.511 317.69ZM94.7107 315.99C93.5107 315.99 92.3107 315.29 91.8107 313.99C91.6107 313.59 91.4107 313.09 91.3107 312.69C90.6107 311.09 91.4107 309.19 93.1107 308.59C94.7107 307.89 96.6107 308.69 97.2107 310.39C97.4107 310.79 97.5107 311.29 97.7107 311.69C98.4107 313.29 97.6107 315.19 96.0107 315.79C95.5107 315.89 95.1107 315.99 94.7107 315.99ZM407.011 303.09C406.711 303.09 406.411 303.09 406.011 302.89C404.311 302.39 403.411 300.59 403.911 298.89C404.011 298.49 404.211 297.99 404.311 297.59C404.811 295.89 406.611 294.99 408.311 295.49C410.011 295.99 410.911 297.79 410.411 299.49C410.311 299.99 410.111 300.39 410.011 300.89C409.611 302.29 408.311 303.09 407.011 303.09ZM89.4107 301.29C88.0107 301.29 86.8107 300.39 86.4107 299.09C86.3107 298.59 86.1107 298.19 86.0107 297.69C85.5107 295.99 86.5107 294.19 88.1107 293.79C89.8107 293.29 91.6107 294.29 92.0107 295.89C92.1107 296.29 92.3107 296.79 92.4107 297.19C92.9107 298.89 92.0107 300.69 90.3107 301.19C90.1107 301.19 89.7107 301.29 89.4107 301.29ZM409.711 293.59C409.411 293.59 409.211 293.59 408.911 293.49C407.211 293.09 406.211 291.29 406.611 289.59C406.711 289.19 406.811 288.69 406.911 288.29C407.311 286.59 409.011 285.59 410.711 285.99C412.411 286.39 413.411 288.09 413.011 289.79C412.911 290.29 412.811 290.69 412.711 291.19C412.411 292.69 411.111 293.59 409.711 293.59ZM86.8107 291.69C85.4107 291.69 84.1107 290.69 83.7107 289.29C83.6107 288.79 83.5107 288.39 83.4107 287.89C83.0107 286.19 84.1107 284.49 85.8107 284.09C87.5107 283.69 89.2107 284.79 89.6107 286.49C89.7107 286.99 89.8107 287.39 89.9107 287.79C90.3107 289.49 89.3107 291.19 87.6107 291.59C87.3107 291.69 87.1107 291.69 86.8107 291.69ZM412.811 278.39C412.611 278.39 412.511 278.39 412.311 278.39C410.611 278.09 409.411 276.49 409.611 274.79C409.711 274.29 409.711 273.89 409.811 273.39C410.111 271.69 411.711 270.49 413.411 270.69C415.111 270.99 416.311 272.59 416.111 274.29C416.011 274.79 416.011 275.19 415.911 275.69C415.711 277.29 414.311 278.39 412.811 278.39ZM83.9107 276.39C82.3107 276.39 81.0107 275.29 80.8107 273.69C80.7107 273.19 80.7107 272.69 80.6107 272.29C80.4107 270.59 81.6107 268.99 83.3107 268.69C85.0107 268.49 86.6107 269.69 86.9107 271.39C87.0107 271.89 87.0107 272.29 87.1107 272.79C87.3107 274.49 86.1107 276.09 84.4107 276.39C84.2107 276.39 84.0107 276.39 83.9107 276.39ZM414.011 268.49C413.911 268.49 413.811 268.49 413.711 268.49C412.011 268.29 410.711 266.79 410.811 264.99C410.811 264.49 410.911 264.09 410.911 263.59C411.111 261.89 412.611 260.49 414.311 260.69C416.011 260.89 417.311 262.39 417.211 264.09C417.211 264.59 417.111 265.09 417.111 265.49C417.011 267.29 415.611 268.49 414.011 268.49ZM82.8107 266.59C81.2107 266.59 79.8107 265.29 79.6107 263.69C79.6107 263.19 79.5107 262.69 79.5107 262.29C79.4107 260.49 80.7107 258.99 82.4107 258.89C84.1107 258.79 85.7107 260.09 85.8107 261.79C85.8107 262.29 85.9107 262.69 85.9107 263.19C86.0107 264.89 84.7107 266.49 83.0107 266.59C83.0107 266.59 82.9107 266.59 82.8107 266.59ZM414.811 252.99C413.011 252.99 411.611 251.59 411.611 249.79V249.39C411.611 248.89 411.611 248.49 411.611 247.99C411.611 246.19 413.011 244.79 414.811 244.79C416.511 244.79 418.011 246.19 418.011 247.99C418.011 248.49 418.011 248.99 418.011 249.39V249.79C417.911 251.59 416.511 252.99 414.811 252.99ZM82.2107 251.09C80.4107 251.09 79.0107 249.59 79.0107 247.89C79.0107 247.39 79.0107 246.89 79.0107 246.49C79.0107 244.69 80.5107 243.29 82.2107 243.39C84.0107 243.39 85.4107 244.89 85.3107 246.59C85.3107 247.09 85.3107 247.49 85.3107 247.99C85.4107 249.69 84.0107 251.09 82.2107 251.09ZM414.511 242.69C412.811 242.69 411.411 241.39 411.311 239.69C411.311 239.19 411.211 238.79 411.211 238.29C411.111 236.49 412.411 234.99 414.211 234.89C416.011 234.79 417.511 236.09 417.611 237.89C417.611 238.39 417.711 238.89 417.711 239.29C417.811 241.09 416.511 242.59 414.711 242.69C414.611 242.69 414.511 242.69 414.511 242.69ZM82.6107 241.19C82.5107 241.19 82.5107 241.19 82.4107 241.19C80.6107 241.09 79.3107 239.59 79.4107 237.79C79.4107 237.29 79.5107 236.79 79.5107 236.39C79.6107 234.69 81.2107 233.29 82.9107 233.49C84.6107 233.59 86.0107 235.19 85.8107 236.89C85.8107 237.39 85.7107 237.79 85.7107 238.29C85.7107 239.89 84.3107 241.19 82.6107 241.19ZM412.811 227.29C411.311 227.29 409.911 226.19 409.711 224.59C409.611 224.09 409.611 223.69 409.511 223.19C409.211 221.49 410.411 219.79 412.111 219.59C413.811 219.29 415.511 220.49 415.711 222.19C415.811 222.69 415.911 223.19 415.911 223.59C416.211 225.29 415.011 226.99 413.211 227.19C413.211 227.29 413.011 227.29 412.811 227.29ZM84.4107 225.69C84.2107 225.69 84.1107 225.69 83.9107 225.69C82.2107 225.39 81.0107 223.79 81.3107 222.09C81.4107 221.59 81.5107 221.19 81.5107 220.69C81.8107 218.99 83.4107 217.79 85.2107 218.09C86.9107 218.39 88.1107 219.99 87.8107 221.79C87.7107 222.29 87.6107 222.69 87.6107 223.19C87.3107 224.59 85.9107 225.69 84.4107 225.69ZM411.011 217.49C409.511 217.49 408.211 216.49 407.911 214.99C407.811 214.49 407.711 214.09 407.611 213.59C407.211 211.89 408.311 210.19 410.011 209.79C411.711 209.39 413.411 210.49 413.811 212.19C413.911 212.69 414.011 213.09 414.111 213.59C414.511 215.29 413.411 216.99 411.711 217.39C411.511 217.49 411.311 217.49 411.011 217.49ZM86.3107 215.99C86.1107 215.99 85.8107 215.99 85.6107 215.89C83.9107 215.49 82.8107 213.79 83.2107 212.09C83.3107 211.59 83.4107 211.19 83.5107 210.69C83.9107 208.99 85.6107 207.89 87.3107 208.29C89.0107 208.69 90.1107 210.39 89.7107 212.09C89.6107 212.49 89.5107 212.99 89.4107 213.49C89.0107 214.99 87.7107 215.99 86.3107 215.99ZM407.111 202.49C405.811 202.49 404.511 201.59 404.111 200.29C404.011 199.89 403.811 199.39 403.711 198.99C403.211 197.29 404.111 195.49 405.711 194.99C407.411 194.49 409.211 195.39 409.711 196.99C409.811 197.49 410.011 197.89 410.111 198.39C410.611 200.09 409.711 201.89 408.011 202.39C407.711 202.39 407.411 202.49 407.111 202.49ZM90.4107 200.99C90.1107 200.99 89.7107 200.89 89.4107 200.79C87.7107 200.29 86.8107 198.49 87.4107 196.79C87.5107 196.29 87.7107 195.89 87.9107 195.39C88.5107 193.69 90.3107 192.79 91.9107 193.39C93.6107 193.99 94.5107 195.79 93.9107 197.39C93.8107 197.79 93.6107 198.29 93.5107 198.69C93.0107 200.09 91.7107 200.99 90.4107 200.99ZM403.811 193.09C402.511 193.09 401.311 192.29 400.811 191.09C400.611 190.69 400.511 190.19 400.311 189.79C399.711 188.19 400.511 186.29 402.111 185.69C403.711 185.09 405.611 185.89 406.211 187.49C406.411 187.89 406.611 188.39 406.711 188.79C407.311 190.39 406.511 192.29 404.911 192.89C404.611 192.99 404.211 193.09 403.811 193.09ZM93.7107 191.59C93.3107 191.59 92.9107 191.49 92.5107 191.39C90.9107 190.79 90.1107 188.89 90.7107 187.29C90.9107 186.89 91.1107 186.39 91.2107 185.99C91.9107 184.39 93.7107 183.59 95.3107 184.19C96.9107 184.89 97.7107 186.69 97.1107 188.29C96.9107 188.69 96.8107 189.19 96.6107 189.59C96.2107 190.89 95.0107 191.59 93.7107 191.59ZM397.511 178.79C396.311 178.79 395.211 178.19 394.711 176.99C394.511 176.59 394.311 176.19 394.111 175.79C393.311 174.19 393.911 172.29 395.511 171.49C397.111 170.69 399.011 171.29 399.811 172.89C400.011 173.29 400.211 173.79 400.411 174.19C401.211 175.79 400.511 177.69 399.011 178.49C398.511 178.69 398.011 178.79 397.511 178.79ZM100.111 177.49C99.6107 177.49 99.1107 177.39 98.7107 177.19C97.1107 176.39 96.5107 174.49 97.3107 172.89C97.5107 172.49 97.7107 171.99 98.0107 171.59C98.8107 169.99 100.711 169.39 102.311 170.19C103.911 170.99 104.511 172.89 103.711 174.49C103.511 174.89 103.311 175.29 103.111 175.69C102.411 176.79 101.311 177.49 100.111 177.49ZM392.911 170.09C391.811 170.09 390.711 169.49 390.111 168.49C389.911 168.09 389.611 167.69 389.411 167.29C388.511 165.79 389.011 163.79 390.511 162.99C392.011 162.09 394.011 162.59 394.811 164.09C395.011 164.49 395.311 164.89 395.511 165.29C396.411 166.79 395.811 168.79 394.311 169.59C393.911 169.99 393.411 170.09 392.911 170.09ZM104.911 168.79C104.411 168.79 103.811 168.69 103.311 168.39C101.811 167.49 101.311 165.59 102.211 164.09C102.411 163.69 102.711 163.29 102.911 162.89C103.811 161.39 105.811 160.89 107.311 161.79C108.811 162.69 109.311 164.59 108.411 166.19C108.211 166.59 107.911 166.99 107.711 167.39C107.011 168.19 106.011 168.79 104.911 168.79ZM384.511 156.99C383.511 156.99 382.511 156.49 381.911 155.69C381.611 155.29 381.411 154.89 381.111 154.59C380.111 153.19 380.411 151.19 381.811 150.19C383.211 149.19 385.211 149.49 386.211 150.89C386.511 151.29 386.811 151.69 387.011 152.09C388.011 153.49 387.711 155.49 386.211 156.49C385.811 156.79 385.111 156.99 384.511 156.99ZM113.311 155.69C112.711 155.69 112.011 155.49 111.411 155.09C110.011 154.09 109.611 152.09 110.711 150.69C111.011 150.29 111.311 149.89 111.511 149.49C112.511 148.09 114.511 147.79 115.911 148.79C117.311 149.79 117.611 151.79 116.611 153.19C116.311 153.59 116.111 153.89 115.811 154.29C115.311 155.29 114.311 155.69 113.311 155.69ZM378.511 148.99C377.611 148.99 376.611 148.59 376.011 147.79C375.711 147.39 375.411 147.09 375.111 146.69C374.011 145.29 374.211 143.29 375.611 142.19C377.011 141.09 379.011 141.29 380.111 142.69C380.411 143.09 380.711 143.39 381.011 143.79C382.111 145.19 381.911 147.19 380.511 148.29C379.911 148.79 379.211 148.99 378.511 148.99ZM119.411 147.89C118.711 147.89 118.011 147.69 117.411 147.19C116.011 146.09 115.811 144.09 116.911 142.69C117.211 142.29 117.511 141.99 117.811 141.59C118.911 140.19 120.911 140.09 122.311 141.19C123.711 142.29 123.811 144.29 122.711 145.69C122.411 146.09 122.111 146.39 121.811 146.79C121.211 147.49 120.311 147.89 119.411 147.89ZM368.311 137.29C367.511 137.29 366.611 136.99 366.011 136.29C365.711 135.99 365.411 135.59 365.011 135.29C363.811 133.99 363.811 131.99 365.011 130.79C366.311 129.59 368.311 129.59 369.511 130.79C369.811 131.09 370.211 131.49 370.511 131.79C371.711 133.09 371.711 135.09 370.411 136.29C369.911 136.99 369.111 137.29 368.311 137.29ZM129.711 136.29C128.911 136.29 128.111 135.99 127.511 135.39C126.211 134.19 126.211 132.19 127.511 130.89C127.811 130.59 128.211 130.19 128.511 129.89C129.711 128.69 131.811 128.69 133.011 129.89C134.211 131.09 134.211 133.19 133.011 134.39C132.711 134.69 132.311 135.09 132.011 135.39C131.411 135.89 130.511 136.29 129.711 136.29ZM361.211 130.39C360.411 130.39 359.711 130.09 359.011 129.59C358.711 129.29 358.311 128.99 358.011 128.69C356.711 127.49 356.611 125.49 357.811 124.19C359.011 122.89 361.011 122.79 362.311 123.99C362.711 124.29 363.011 124.59 363.411 124.99C364.711 126.19 364.811 128.19 363.611 129.49C362.911 129.99 362.111 130.39 361.211 130.39ZM136.911 129.39C136.011 129.39 135.211 128.99 134.511 128.39C133.311 127.09 133.411 125.09 134.711 123.89C135.111 123.59 135.411 123.29 135.811 122.89C137.111 121.69 139.111 121.79 140.311 123.19C141.511 124.49 141.411 126.49 140.011 127.69C139.711 127.99 139.311 128.29 139.011 128.59C138.411 129.09 137.611 129.39 136.911 129.39ZM349.311 120.39C348.611 120.39 348.011 120.19 347.411 119.69C347.011 119.39 346.711 119.09 346.311 118.89C344.911 117.79 344.611 115.89 345.711 114.49C346.811 113.09 348.711 112.79 350.111 113.89C350.511 114.19 350.911 114.49 351.211 114.79C352.611 115.89 352.911 117.89 351.811 119.29C351.211 119.99 350.211 120.39 349.311 120.39ZM148.911 119.49C147.911 119.49 147.011 119.09 146.411 118.19C145.311 116.79 145.611 114.79 147.011 113.79C147.411 113.49 147.811 113.19 148.211 112.89C149.611 111.89 151.611 112.19 152.611 113.59C153.611 114.99 153.311 116.99 151.911 117.99C151.511 118.29 151.211 118.59 150.811 118.79C150.211 119.29 149.511 119.49 148.911 119.49ZM341.211 114.59C340.611 114.59 340.011 114.39 339.411 114.09C339.011 113.79 338.611 113.59 338.211 113.29C336.711 112.29 336.311 110.39 337.311 108.89C338.311 107.39 340.211 106.99 341.711 107.99C342.111 108.29 342.511 108.49 342.911 108.79C344.411 109.79 344.711 111.79 343.811 113.19C343.311 114.09 342.311 114.59 341.211 114.59ZM157.011 113.79C156.011 113.79 155.011 113.29 154.311 112.39C153.311 110.89 153.711 108.99 155.211 107.99C155.611 107.69 156.011 107.49 156.411 107.19C157.911 106.19 159.811 106.69 160.811 108.09C161.811 109.59 161.311 111.49 159.911 112.49C159.511 112.79 159.111 112.99 158.711 113.29C158.211 113.59 157.611 113.79 157.011 113.79ZM327.911 106.49C327.411 106.49 326.911 106.39 326.411 106.09C326.011 105.89 325.611 105.69 325.211 105.39C323.711 104.59 323.111 102.59 323.911 101.09C324.711 99.5904 326.711 98.9904 328.211 99.7904C328.611 99.9904 329.011 100.29 329.511 100.49C331.011 101.29 331.611 103.29 330.811 104.79C330.211 105.89 329.111 106.49 327.911 106.49ZM170.411 105.79C169.311 105.79 168.211 105.19 167.611 104.09C166.811 102.59 167.411 100.59 168.911 99.7904C169.311 99.5904 169.811 99.2904 170.211 99.0904C171.811 98.2904 173.711 98.8904 174.511 100.39C175.311 101.99 174.711 103.89 173.211 104.69C172.811 104.89 172.411 105.09 172.011 105.29C171.411 105.69 170.911 105.79 170.411 105.79ZM319.111 102.09C318.611 102.09 318.211 101.99 317.811 101.79C317.411 101.59 317.011 101.39 316.511 101.19C314.911 100.49 314.211 98.5904 314.911 96.9904C315.611 95.3904 317.511 94.6904 319.111 95.3904C319.511 95.5904 320.011 95.7904 320.411 95.9904C322.011 96.6904 322.711 98.5904 321.911 100.19C321.511 101.39 320.311 102.09 319.111 102.09ZM179.211 101.39C178.011 101.39 176.811 100.69 176.311 99.4904C175.611 97.8904 176.311 95.9904 177.911 95.2904C178.311 95.0904 178.811 94.8904 179.211 94.6904C180.811 93.9904 182.711 94.6904 183.411 96.2904C184.111 97.8904 183.411 99.7904 181.811 100.49C181.411 100.69 181.011 100.89 180.511 101.09C180.111 101.29 179.711 101.39 179.211 101.39ZM304.811 96.0904C304.411 96.0904 304.111 95.9904 303.711 95.8904C303.311 95.6904 302.811 95.5904 302.411 95.3904C300.711 94.7904 299.911 92.9904 300.511 91.3904C301.111 89.6904 302.911 88.8904 304.511 89.4904C305.011 89.6904 305.411 89.7904 305.911 89.9904C307.611 90.5904 308.411 92.3904 307.811 94.0904C307.311 95.2904 306.111 96.0904 304.811 96.0904ZM193.711 95.5904C192.411 95.5904 191.211 94.7904 190.711 93.4904C190.111 91.7904 191.011 89.9904 192.711 89.4904C193.211 89.2904 193.611 89.1904 194.111 88.9904C195.811 88.3904 197.611 89.2904 198.111 90.9904C198.711 92.6904 197.811 94.4904 196.111 94.9904C195.711 95.0904 195.211 95.2904 194.811 95.4904C194.411 95.4904 194.011 95.5904 193.711 95.5904ZM295.311 93.0904C295.011 93.0904 294.711 93.0904 294.411 92.9904C294.011 92.8904 293.511 92.6904 293.111 92.5904C291.411 92.0904 290.411 90.3904 290.911 88.6904C291.411 86.9904 293.111 85.9904 294.811 86.4904C295.311 86.5904 295.711 86.7904 296.211 86.8904C297.911 87.3904 298.811 89.1904 298.411 90.7904C298.011 92.1904 296.711 93.0904 295.311 93.0904ZM203.111 92.5904C201.711 92.5904 200.411 91.6904 200.011 90.2904C199.511 88.5904 200.511 86.8904 202.211 86.3904C202.711 86.2904 203.111 86.0904 203.611 85.9904C205.311 85.4904 207.011 86.4904 207.511 88.1904C208.011 89.8904 207.011 91.5904 205.311 92.0904C204.911 92.1904 204.411 92.2904 204.011 92.4904C203.711 92.5904 203.411 92.5904 203.111 92.5904ZM280.211 89.3904C280.011 89.3904 279.811 89.3904 279.611 89.2904C279.111 89.1904 278.711 89.0904 278.211 88.9904C276.511 88.6904 275.311 86.9904 275.711 85.2904C276.111 83.5904 277.711 82.3904 279.411 82.7904C279.911 82.8904 280.311 82.9904 280.811 83.0904C282.511 83.3904 283.711 85.0904 283.311 86.7904C283.011 88.2904 281.711 89.3904 280.211 89.3904ZM218.311 89.0904C216.811 89.0904 215.511 87.9904 215.211 86.4904C214.911 84.7904 216.011 83.0904 217.711 82.7904C218.211 82.6904 218.611 82.5904 219.111 82.4904C220.811 82.1904 222.511 83.3904 222.811 85.0904C223.111 86.7904 221.911 88.4904 220.211 88.7904C219.711 88.8904 219.311 88.9904 218.811 88.9904C218.711 89.0904 218.511 89.0904 218.311 89.0904ZM270.411 87.7904C270.311 87.7904 270.111 87.7904 270.011 87.7904C269.511 87.6904 269.111 87.6904 268.611 87.5904C266.911 87.3904 265.611 85.7904 265.811 84.0904C266.011 82.3904 267.611 81.0904 269.311 81.2904C269.811 81.3904 270.311 81.3904 270.711 81.4904C272.411 81.6904 273.711 83.2904 273.411 85.0904C273.411 86.5904 272.011 87.7904 270.411 87.7904ZM228.111 87.5904C226.511 87.5904 225.111 86.3904 225.011 84.7904C224.811 83.0904 226.011 81.4904 227.811 81.2904C228.311 81.1904 228.811 81.1904 229.211 81.0904C230.911 80.8904 232.511 82.1904 232.711 83.8904C232.911 85.5904 231.611 87.1904 229.911 87.3904C229.411 87.4904 229.011 87.4904 228.511 87.5904C228.411 87.5904 228.211 87.5904 228.111 87.5904ZM254.911 86.4904H254.811C254.311 86.4904 253.911 86.4904 253.411 86.4904C251.611 86.3904 250.311 84.9904 250.311 83.1904C250.411 81.3904 251.811 80.0904 253.611 80.0904C254.111 80.0904 254.611 80.0904 255.011 80.0904C256.811 80.1904 258.111 81.5904 258.111 83.3904C258.011 85.0904 256.611 86.4904 254.911 86.4904ZM243.611 86.3904C241.911 86.3904 240.511 84.9904 240.411 83.2904C240.411 81.4904 241.711 80.0904 243.511 79.9904C244.011 79.9904 244.511 79.9904 244.911 79.9904C246.611 79.9904 248.111 81.3904 248.111 83.0904C248.111 84.8904 246.711 86.2904 245.011 86.2904C244.611 86.3904 244.211 86.3904 243.611 86.3904C243.611 86.3904 243.711 86.3904 243.611 86.3904Z" fill="black"/>
<path d="M248.511 431.59C148.111 431.59 66.3107 349.89 66.3107 249.39C66.3107 148.99 148.011 67.1904 248.511 67.1904C349.011 67.1904 430.711 148.99 430.711 249.39C430.711 349.89 348.911 431.59 248.511 431.59ZM248.511 73.5904C151.511 73.5904 72.7107 152.49 72.7107 249.39C72.7107 346.39 151.511 425.19 248.511 425.19C345.511 425.19 424.311 346.29 424.311 249.39C424.311 152.49 345.411 73.5904 248.511 73.5904Z" fill="black"/>
<path d="M83.2107 364.79L80.7107 351.59L78.2107 364.79L65.4107 360.39L75.6107 369.19L65.4107 377.99L78.2107 373.59L80.7107 386.79L83.2107 373.59L96.0107 377.99L85.8107 369.19L96.0107 360.39L83.2107 364.79Z" fill="black"/>
<path d="M431.711 360.39L418.911 364.79L416.411 351.59L413.911 364.79L401.111 360.39L411.311 369.19L401.111 377.99L413.911 373.59L416.411 386.79L418.911 373.59L431.711 377.99L421.511 369.19L431.711 360.39Z" fill="black"/>
<path d="M98.8107 234.09C99.4107 228.49 103.911 224.89 109.211 225.39C114.611 225.89 118.411 230.39 117.911 235.99C117.311 241.59 112.711 245.19 107.311 244.69C101.911 244.19 98.2107 239.69 98.8107 234.09ZM113.711 235.59C114.011 232.79 111.811 230.39 108.711 230.09C105.711 229.79 103.211 231.79 102.911 234.49C102.611 237.29 104.711 239.69 107.711 239.99C110.811 240.39 113.411 238.39 113.711 235.59Z" fill="black"/>
<path d="M102.711 212.49L104.611 206.29C105.111 204.49 105.511 203.69 106.111 202.99C107.511 201.19 109.711 200.49 112.211 201.29C114.111 201.89 115.911 203.39 116.211 205.39C116.211 205.39 116.611 205.19 117.511 205.09L124.711 203.49L123.211 208.29L116.311 209.69L115.711 211.69L121.711 213.49L120.411 217.79L102.711 212.49ZM112.611 208.69C113.011 207.29 112.511 206.19 111.111 205.79C109.811 205.39 108.811 205.69 108.211 207.79L107.811 209.29L112.111 210.59L112.611 208.69Z" fill="black"/>
<path d="M115.111 179.59C117.311 175.39 120.611 174.39 120.611 174.39L122.611 177.89C122.611 177.89 120.211 178.79 119.011 181.09C117.211 184.59 118.711 187.09 121.111 188.39C124.211 189.99 127.211 188.79 128.511 186.29C129.511 184.39 129.011 182.29 129.011 182.29L127.711 181.59L126.511 183.89L123.111 182.09L126.111 176.19L135.411 180.99L133.711 184.39L133.211 184.19C132.911 183.99 132.511 183.79 132.511 183.79C132.511 183.79 133.111 186.09 131.711 188.89C129.511 193.09 124.411 195.29 119.011 192.59C114.311 190.19 112.511 184.59 115.111 179.59Z" fill="black"/>
<path d="M143.211 163.79L139.711 168.39L142.111 171.69L139.211 175.39L128.411 159.09L131.311 155.29L149.811 161.69L146.911 165.39L143.211 163.79ZM133.211 159.69C133.211 159.69 134.511 161.29 135.311 162.19L137.511 165.19L139.711 162.29L136.211 160.89C135.111 160.59 133.211 159.69 133.211 159.69Z" fill="black"/>
<path d="M142.911 142.19L146.311 139.19L155.911 142.29C157.311 142.69 159.211 143.59 159.211 143.59C159.211 143.59 157.711 142.19 156.911 141.39L151.211 134.89L154.611 131.89L166.911 145.69L163.511 148.69L153.911 145.69C152.511 145.29 150.611 144.39 150.611 144.39C150.611 144.39 152.111 145.79 152.911 146.59L158.611 152.99L155.211 155.99L142.911 142.19Z" fill="black"/>
<path d="M165.211 124.19L169.011 121.69L179.011 137.29L175.211 139.79L165.211 124.19Z" fill="black"/>
<path d="M185.611 130.09L187.911 117.89C188.211 116.49 188.511 115.79 188.511 115.79C188.511 115.79 188.011 116.09 187.211 116.49L181.011 119.29L179.411 115.79L192.111 109.99L193.311 112.49L191.011 124.69C190.711 126.09 190.411 126.79 190.411 126.79C190.411 126.79 190.911 126.49 191.711 126.09L198.311 123.09L199.911 126.59L186.811 132.59L185.611 130.09Z" fill="black"/>
<path d="M203.611 105.89L214.811 102.89L215.811 106.59L209.011 108.49L209.911 111.79L215.311 110.29L216.311 113.99L210.911 115.49L211.811 118.89L219.011 116.99L220.011 120.69L208.411 123.79L203.611 105.89Z" fill="black"/>
<path d="M295.211 106.39L299.411 107.99L295.211 118.89C294.511 120.69 295.311 122.09 297.111 122.79C298.911 123.49 300.511 122.99 301.211 121.19L305.411 110.29L309.611 111.89L305.411 122.79C303.911 126.69 300.011 128.29 295.611 126.69C291.211 124.99 289.411 121.09 290.911 117.19L295.211 106.39Z" fill="black"/>
<path d="M325.311 120.19L329.111 122.79L328.511 132.79C328.411 134.19 328.011 136.29 328.011 136.29C328.011 136.29 328.911 134.49 329.611 133.59L334.411 126.39L338.211 128.89L327.911 144.29L324.111 141.79L324.611 131.79C324.711 130.39 325.111 128.29 325.111 128.29C325.111 128.29 324.211 130.09 323.511 130.99L318.711 138.19L314.911 135.69L325.311 120.19Z" fill="black"/>
<path d="M351.411 140.09L354.711 143.29L341.711 156.59L338.411 153.39L351.411 140.09Z" fill="black"/>
<path d="M365.011 161.09L361.711 156.59L364.811 154.29L374.111 166.99L371.011 169.29L367.711 164.79L355.911 173.39L353.211 169.69L365.011 161.09Z" fill="black"/>
<path d="M381.811 180.39L386.711 190.89L383.211 192.59L380.211 186.19L377.211 187.59L379.611 192.69L376.111 194.39L373.711 189.29L370.511 190.79L373.711 197.49L370.211 199.19L365.111 188.39L381.811 180.39Z" fill="black"/>
<path d="M124.511 296.89L129.011 307.29L125.511 308.79L122.711 302.39L119.711 303.69L121.911 308.79L118.411 310.29L116.211 305.19L113.111 306.59L116.011 313.29L112.511 314.79L107.811 303.99L124.511 296.89Z" fill="black"/>
<path d="M124.511 324.79C124.511 324.79 124.011 327.49 125.311 329.49C125.811 330.29 126.611 330.89 127.511 330.29C129.311 329.09 124.811 322.29 129.511 319.29C132.311 317.49 135.711 318.59 137.711 321.69C139.811 324.99 139.211 327.69 139.211 327.69L135.111 328.09C135.111 328.09 135.411 325.69 134.311 323.89C133.811 323.09 132.911 322.49 132.111 323.09C130.211 324.29 135.011 330.99 130.211 334.09C127.711 335.69 124.211 335.19 122.011 331.79C119.711 328.19 120.611 324.79 120.611 324.79H124.511Z" fill="black"/>
<path d="M146.911 340.39L143.211 336.39L146.011 333.79L156.511 345.09L153.711 347.69L150.011 343.69L139.511 353.49L136.511 350.19L146.911 340.39Z" fill="black"/>
<path d="M153.911 361.29L157.111 363.89L154.511 367.09L151.311 364.49L153.911 361.29Z" fill="black"/>
<path d="M180.411 379.59L183.911 381.19L187.111 374.39C187.411 373.79 187.711 373.09 187.711 373.09C187.711 373.09 187.311 373.49 186.611 373.69L185.211 374.09L184.111 370.49L190.511 368.39L194.011 369.99L187.911 382.99L191.411 384.69L189.711 388.19L178.811 382.99L180.411 379.59Z" fill="black"/>
<path d="M201.011 392.29L203.211 388.99C203.211 388.99 204.211 389.79 205.411 390.19C207.511 390.79 209.011 389.79 210.011 388.39C209.511 388.59 208.311 388.59 207.411 388.29C203.811 387.29 202.511 383.69 203.411 380.69C204.211 377.69 207.211 375.39 211.011 376.49C214.511 377.49 217.311 381.19 215.711 386.79C214.411 391.49 210.111 395.69 204.611 394.09C202.211 393.39 201.011 392.29 201.011 392.29ZM211.611 384.49C212.211 382.39 211.111 380.59 209.911 380.29C208.811 379.99 207.911 380.69 207.611 381.79C207.211 382.99 207.611 384.59 209.511 385.09C210.511 385.39 211.411 385.29 211.611 384.49Z" fill="black"/>
<path d="M228.211 393.29C228.211 393.29 229.611 395.09 231.711 395.29C233.311 395.49 234.411 394.79 234.511 393.79C234.611 392.39 233.311 391.69 231.311 391.49L230.011 391.39L229.311 389.19L232.011 386.59C233.011 385.69 233.711 385.09 233.711 385.09V384.99C233.711 384.99 233.111 385.09 232.011 384.99L227.711 384.59L228.111 380.79L239.511 381.99L239.211 384.79L235.111 388.59C237.711 389.49 239.211 391.69 238.911 394.29C238.611 397.39 236.111 400.19 231.611 399.79C227.611 399.39 225.711 396.79 225.711 396.79L228.211 393.29Z" fill="black"/>
<path d="M258.511 386.89C259.011 385.59 259.611 385.19 259.611 385.19V385.09C259.611 385.09 259.411 385.19 258.411 385.29L251.311 385.79L251.011 381.99L264.011 381.09L264.211 384.19L257.611 399.69L253.011 399.99L258.511 386.89Z" fill="black"/>
<path d="M311.811 365.89L317.311 362.49C322.211 359.49 327.011 360.39 330.011 365.29C333.011 370.19 331.711 374.99 326.811 377.99L321.311 381.39L311.811 365.89ZM324.611 374.89C327.211 373.29 327.911 370.79 326.011 367.79C324.211 364.89 321.611 364.39 319.011 365.89L317.411 366.89L322.911 375.89L324.611 374.89Z" fill="black"/>
<path d="M333.611 350.99L342.011 343.39L344.611 346.19L339.511 350.79L341.711 353.19L345.811 349.49L348.411 352.29L344.311 355.99L346.611 358.49L352.011 353.59L354.611 356.39L345.911 364.29L333.611 350.99Z" fill="black"/>
<path d="M349.611 335.19L356.511 326.49L359.511 328.89L355.411 334.09L358.411 336.49L361.811 332.19L364.811 334.59L361.411 338.89L366.711 343.09L364.011 346.59L349.611 335.19Z" fill="black"/>
<path d="M362.211 317.69L367.711 307.69L371.011 309.49L367.711 315.59L370.611 317.19L373.311 312.29L376.611 314.09L373.911 318.99L376.911 320.59L380.411 314.19L383.711 315.99L378.111 326.29L362.211 317.69Z" fill="black"/>
<path d="M372.211 297.59L373.611 293.29L383.211 291.19C384.611 290.89 386.611 290.69 386.611 290.69C386.611 290.69 384.711 290.29 383.611 289.89L375.511 287.29L376.911 283.09L394.111 288.69L392.711 292.89L383.111 295.09C381.711 295.39 379.711 295.59 379.711 295.59C379.711 295.59 381.611 295.99 382.711 296.39L390.711 298.99L389.311 303.19L372.211 297.59Z" fill="black"/>
<path d="M379.411 271.59L380.111 265.19C380.811 259.49 384.511 256.29 390.111 256.89C395.811 257.59 398.711 261.59 398.111 267.19L397.411 273.59L379.411 271.59ZM394.411 266.99C394.811 263.99 393.211 261.89 389.711 261.49C386.311 261.09 384.311 262.79 383.911 265.79L383.711 267.59L394.211 268.79L394.411 266.99Z" fill="black"/>
<path d="M109.911 274.79C112.23 274.79 114.111 272.91 114.111 270.59C114.111 268.271 112.23 266.39 109.911 266.39C107.591 266.39 105.711 268.271 105.711 270.59C105.711 272.91 107.591 274.79 109.911 274.79Z" fill="black"/>
<path d="M387.411 232.29C389.73 232.29 391.611 230.41 391.611 228.09C391.611 225.771 389.73 223.89 387.411 223.89C385.091 223.89 383.211 225.771 383.211 228.09C383.211 230.41 385.091 232.29 387.411 232.29Z" fill="black"/>
<path d="M290.111 388.89C292.43 388.89 294.311 387.01 294.311 384.69C294.311 382.371 292.43 380.49 290.111 380.49C287.791 380.49 285.911 382.371 285.911 384.69C285.911 387.01 287.791 388.89 290.111 388.89Z" fill="black"/>
<path d="M224.011 207.49L225.511 202.79C225.611 202.59 231.011 186.09 246.811 175.19C254.411 169.89 263.411 165.59 269.111 160.39C273.811 155.99 276.411 147.39 275.911 137.99C275.411 128.89 271.511 111.49 251.411 96.6904L245.111 92.0904L248.011 99.3904C256.811 121.49 249.611 144.49 244.111 148.49C242.911 147.89 240.611 143.39 239.311 138.99L238.411 136.09L235.911 137.69C235.511 137.99 226.111 144.09 219.611 155.29C213.511 165.69 208.911 182.49 221.611 203.29L224.011 207.49ZM235.811 143.29C237.111 146.79 239.511 151.69 242.611 152.79C243.911 153.29 245.311 153.09 246.511 152.19C250.611 149.39 254.211 141.29 255.711 131.49C257.111 122.69 256.611 113.59 254.511 105.09C268.111 117.49 271.011 130.89 271.411 138.29C271.911 146.29 269.811 153.69 266.111 157.09C260.811 162.09 252.311 165.99 244.311 171.49C232.311 179.79 226.011 190.89 223.111 196.99C208.411 168.29 228.611 148.99 235.811 143.29Z" fill="black"/>
<path d="M344.011 213.59L346.211 211.89L346.111 210.59C345.111 200.89 338.511 192.69 329.311 189.49L327.711 189.39L325.911 190.89C307.211 205.79 285.311 223.89 263.711 241.89C264.611 234.39 266.611 221.49 266.611 221.49L267.211 220.99C283.811 208.29 293.811 178.39 282.711 155.69L278.411 146.89V156.69C278.411 168.99 271.111 181.59 266.211 184.09C262.111 186.19 258.011 183.09 260.911 176.39L262.911 170.99L257.811 173.59C256.711 174.09 231.411 187.19 227.111 204.49C225.711 210.29 226.711 215.79 230.211 220.99L231.011 234.89C209.311 216.99 189.211 199.39 175.611 186.09L175.111 185.59L174.411 185.49C160.611 182.79 150.911 195.19 150.311 197.39L149.911 198.79C149.911 198.79 153.511 201.69 154.811 202.79C147.811 212.09 148.011 221.69 149.911 225.79L150.211 226.39L150.611 226.69C150.611 226.69 219.611 278.19 219.711 278.29C208.811 287.19 187.811 304.69 187.811 304.69L164.011 341.69L205.411 326.89C205.411 326.89 225.111 311.29 234.511 303.79L237.911 368.89H255.011V366.59C255.211 354.99 256.111 333.39 257.711 309.29C267.411 317.49 276.511 325.29 284.411 332.49C284.611 332.69 284.711 332.79 284.911 332.99C286.011 333.99 287.111 334.99 288.111 335.89C290.511 338.09 292.811 340.29 294.911 342.29C298.811 346.09 303.211 349.59 308.711 349.59C309.011 349.59 309.211 349.59 309.511 349.59C315.011 349.29 321.411 345.89 327.711 337.99C331.811 332.89 333.711 324.99 332.811 319.49C331.511 311.09 324.211 305.99 318.211 302.19C316.911 301.39 315.711 300.59 314.711 299.89C303.311 291.79 289.611 281.49 275.011 270.19C275.111 270.09 275.211 269.99 275.311 269.89C299.011 250.19 323.411 229.99 344.011 213.59ZM341.211 208.89C335.411 206.19 331.211 200.89 329.911 194.59C335.611 197.39 339.811 202.69 341.211 208.89ZM325.711 196.69C327.511 203.39 332.111 209.09 338.211 212.39C335.111 214.89 331.911 217.49 328.711 220.09C322.111 217.39 317.311 211.39 316.111 204.39C319.411 201.79 322.611 199.19 325.711 196.69ZM231.411 205.59C234.211 194.19 248.411 184.29 255.611 179.99C255.511 182.09 255.811 184.39 257.111 186.29C258.111 187.79 260.511 189.89 264.311 189.49C268.211 189.19 278.411 183.99 281.711 166.79C285.411 184.09 276.111 205.39 267.611 214.59C257.911 225.09 241.511 223.09 235.311 218.99C230.911 215.89 230.311 210.09 231.411 205.59ZM261.511 224.79C260.511 231.19 259.511 238.39 258.711 245.99C258.211 246.39 257.811 246.79 257.311 247.09C255.511 248.59 253.611 250.09 251.811 251.69C246.411 247.39 241.111 242.99 235.811 238.69L235.011 224.09C243.811 228.19 254.011 228.39 261.511 224.79ZM189.111 310.89C191.011 316.39 194.711 320.99 199.611 324.09L175.011 332.89L189.111 310.89ZM234.311 298.09C224.111 306.49 214.211 314.49 205.111 321.79C198.511 319.09 193.811 313.09 192.611 306.09C202.211 298.39 223.411 281.09 223.411 281.09C223.411 281.09 230.811 286.99 233.911 289.49C235.511 290.79 239.111 293.69 239.411 293.99C239.211 294.19 238.911 294.39 238.711 294.59C237.211 295.79 235.711 296.89 234.311 298.09ZM253.511 305.59C251.911 329.59 251.011 351.59 250.611 364.39H242.211L238.911 300.09C240.211 298.99 241.611 297.89 242.911 296.79C246.511 299.79 250.011 302.69 253.511 305.59ZM315.311 305.49C315.511 305.59 315.711 305.79 315.911 305.89C321.411 309.49 327.811 314.09 328.811 320.39C329.511 324.49 328.011 330.49 323.711 335.79C318.211 342.59 313.611 344.69 309.411 344.89C305.311 345.09 301.611 342.19 298.311 338.99C297.411 337.79 296.911 331.69 299.811 325.29C303.811 328.59 313.011 336.79 313.011 336.79C313.011 336.79 321.611 329.59 320.811 321.49C320.511 318.29 319.411 315.69 317.311 314.19C314.511 312.09 308.111 307.29 300.111 316.39C295.411 321.79 293.211 328.69 293.011 334.19C293.011 334.19 292.911 334.19 292.911 334.09C292.311 333.59 259.511 304.79 258.311 303.79C258.211 303.69 222.611 274.79 222.311 274.49C221.411 273.79 154.311 223.69 153.811 223.29C152.811 220.29 152.911 212.89 158.311 205.49C175.911 219.69 284.111 306.29 293.611 313.99L295.511 315.49L296.911 313.59C297.311 313.29 303.811 304.49 315.311 305.49ZM302.011 321.39C302.511 320.69 303.011 319.99 303.611 319.39C310.311 312.29 316.411 318.39 316.311 321.69C316.211 324.69 315.111 328.19 313.011 330.69C309.311 327.59 305.711 324.49 302.011 321.39ZM309.111 301.29C302.011 302.59 297.111 306.79 294.811 309.29C285.311 301.59 227.311 255.19 224.911 253.19C199.611 232.99 173.411 212.09 155.511 197.49C157.811 194.59 164.311 188.49 172.911 189.79C187.211 203.79 208.511 222.29 231.211 240.89C232.811 242.19 234.311 243.49 235.911 244.79C239.911 248.09 270.211 272.19 271.411 273.09C285.211 283.69 298.111 293.39 309.111 301.29ZM271.511 267.29C268.311 264.79 256.111 255.19 255.411 254.59C256.311 253.89 296.611 220.29 312.311 207.59C314.111 214.29 318.711 219.99 324.911 223.29C308.211 236.69 271.811 266.99 271.511 267.29Z" fill="black"/>
<path d="M495.411 256.49C496.511 254.09 495.711 251.49 493.711 250.19L485.311 244.49L493.411 238.59C494.211 237.99 494.811 237.29 495.211 236.39C496.111 233.99 495.111 231.39 493.011 230.29L484.111 225.29L491.711 218.69C492.411 218.09 493.011 217.29 493.311 216.29C494.011 213.79 492.811 211.29 490.611 210.39L481.411 206.19L488.411 198.99C489.111 198.29 489.611 197.39 489.811 196.49C490.311 193.89 488.911 191.59 486.611 190.79L477.111 187.29L483.511 179.59C484.111 178.89 484.611 177.99 484.711 176.99C485.011 174.39 483.411 172.19 481.111 171.59L471.311 168.89L477.111 160.69C477.711 159.89 478.011 158.99 478.111 157.99C478.211 155.39 476.411 153.29 474.111 152.89L464.111 150.99L469.211 142.29C469.711 141.49 470.011 140.49 469.911 139.49C469.811 136.89 467.811 134.99 465.411 134.69L455.311 133.69L459.611 124.69C460.011 123.79 460.211 122.79 460.111 121.89C459.811 119.29 457.611 117.59 455.311 117.49L445.111 117.29L448.711 107.89C449.111 106.99 449.211 105.99 449.011 104.99C448.411 102.49 446.211 100.89 443.811 100.99L433.711 101.59L436.511 91.9904C436.811 91.0904 436.811 90.0904 436.611 89.0904C435.911 86.5904 433.511 85.1904 431.111 85.4904L421.011 86.8904L423.011 77.0904C423.211 76.0904 423.211 75.0904 422.811 74.1904C421.811 71.7904 419.411 70.5904 417.111 71.0904L407.211 73.2904L408.411 63.3904C408.511 62.3904 408.411 61.3904 408.011 60.5904C406.911 58.2904 404.311 57.2904 402.011 57.9904L392.311 60.9904L392.711 50.9904C392.711 49.9904 392.611 48.9904 392.111 48.1904C390.811 45.9904 388.111 45.1904 385.911 46.0904L376.511 49.8904L376.111 39.8904C376.111 38.8904 375.811 37.9904 375.211 37.1904C373.711 35.0904 371.011 34.4904 368.911 35.5904L359.811 40.1904L358.611 30.2904C358.511 29.2904 358.111 28.3904 357.511 27.5904C355.811 25.5904 353.111 25.2904 351.111 26.4904L342.411 31.7904L340.411 21.9904C340.211 20.9904 339.811 20.0904 339.111 19.3904C337.311 17.5904 334.511 17.3904 332.611 18.8904L324.411 24.8904L321.611 15.2904C321.311 14.3904 320.811 13.4904 320.111 12.7904C318.111 11.0904 315.411 11.1904 313.611 12.7904L305.911 19.3904L302.311 10.0904C301.911 9.1904 301.411 8.3904 300.611 7.7904C298.511 6.2904 295.811 6.5904 294.111 8.2904L287.011 15.4904L282.611 6.3904C282.311 5.7904 281.911 5.0904 281.311 4.6904C279.011 2.8904 276.011 3.3904 274.311 5.3904L267.811 13.1904L262.711 4.5904C262.111 3.5904 261.211 2.6904 260.011 2.2904C257.811 1.5904 255.511 2.3904 254.311 4.0904L248.511 12.3904L242.711 4.1904C242.111 3.3904 241.411 2.6904 240.511 2.3904C238.111 1.3904 235.511 2.3904 234.311 4.4904L229.211 13.2904L222.811 5.5904C222.211 4.8904 221.411 4.1904 220.411 3.9904C217.911 3.1904 215.411 4.3904 214.411 6.5904L210.011 15.6904L203.011 8.4904C202.311 7.7904 201.511 7.2904 200.511 6.9904C197.911 6.3904 195.611 7.7904 194.711 9.9904L191.011 19.4904L183.411 12.8904C182.711 12.2904 181.811 11.7904 180.811 11.6904C178.211 11.3904 176.011 12.8904 175.311 15.1904L172.411 24.8904L164.311 18.9904C163.511 18.3904 162.611 17.9904 161.611 17.9904C159.011 17.8904 156.911 19.5904 156.411 21.8904L154.311 31.7904L145.811 26.5904C145.011 26.0904 144.011 25.7904 143.011 25.7904C140.411 25.8904 138.411 27.7904 138.111 30.1904L136.911 40.2904L128.011 35.7904C127.111 35.3904 126.211 35.0904 125.211 35.1904C122.611 35.4904 120.811 37.5904 120.711 39.8904L120.311 49.9904L111.011 46.1904C110.111 45.7904 109.111 45.6904 108.211 45.8904C105.611 46.3904 104.011 48.5904 104.111 50.9904L104.511 61.0904L94.9107 58.0904C94.0107 57.7904 93.0107 57.6904 92.0107 57.9904C89.5107 58.6904 88.1107 60.9904 88.3107 63.3904L89.7107 73.4904L79.8107 71.1904C77.5107 70.6904 75.0107 71.8904 74.1107 74.2904C73.7107 75.1904 73.7107 76.1904 73.9107 77.1904L75.9107 86.9904L65.8107 85.5904C63.4107 85.2904 61.1107 86.5904 60.3107 89.0904C60.0107 89.9904 60.1107 90.9904 60.4107 91.9904L63.2107 101.59L53.1107 100.99C50.7107 100.89 48.4107 102.49 47.9107 105.19C47.7107 106.09 47.9107 106.99 48.2107 107.79L51.8107 117.19L41.8107 117.39C40.8107 117.39 39.9107 117.69 39.0107 118.19C36.8107 119.69 36.2107 122.29 37.3107 124.49L41.7107 133.69L31.7107 134.69C30.7107 134.79 29.8107 135.09 29.0107 135.69C27.0107 137.29 26.6107 140.09 27.8107 142.09L32.9107 150.89L23.0107 152.69C22.0107 152.89 21.1107 153.29 20.4107 153.89C18.5107 155.69 18.3107 158.39 19.7107 160.39L25.5107 168.69L15.8107 171.29C14.9107 171.59 14.0107 171.99 13.3107 172.79C11.6107 174.79 11.6107 177.49 13.1107 179.29L19.6107 187.09L10.2107 190.49C9.31068 190.79 8.41068 191.39 7.91068 192.19C6.31068 194.29 6.61068 196.99 8.31068 198.69L15.4107 205.99L6.31068 210.19C5.41068 210.59 4.61068 211.19 4.11068 211.99C2.71068 214.19 3.21068 216.89 5.01068 218.49L12.7107 225.19L4.01068 230.09C3.21068 230.59 2.41068 231.19 2.01068 232.09C0.810683 234.39 1.51068 237.09 3.41068 238.49L11.6107 244.49L3.31068 250.09C2.51068 250.59 1.81068 251.39 1.41068 252.29C0.410682 254.69 1.31068 257.29 3.31068 258.49L11.9107 263.79L4.11068 270.09C3.31068 270.69 2.71068 271.49 2.41068 272.39C1.61068 274.89 2.71068 277.39 4.81068 278.39L13.9107 282.99L6.61068 289.89C5.91068 290.59 5.31068 291.39 5.11068 292.29C4.51068 294.79 5.81068 297.19 8.01068 298.09L17.4107 301.89L10.7107 309.29C10.0107 309.99 9.61068 310.89 9.41068 311.89C9.01068 314.49 10.5107 316.79 12.8107 317.49L22.5107 320.59L16.4107 328.59C15.8107 329.39 15.4107 330.29 15.3107 331.29C15.1107 333.89 16.8107 335.99 19.1107 336.59L29.0107 338.89L23.6107 347.29C23.1107 348.09 22.7107 349.09 22.7107 349.99C22.7107 352.59 24.6107 354.59 27.0107 354.89L37.0107 356.39L32.3107 365.29C31.8107 366.19 31.6107 367.09 31.7107 368.09C31.9107 370.69 34.0107 372.49 36.3107 372.69L46.4107 373.29L42.4107 382.49C42.0107 383.29 41.9107 384.19 42.0107 385.09C42.4107 387.79 44.6107 389.49 47.0107 389.49L57.2107 389.29L54.0107 398.79C53.7107 399.59 53.6107 400.49 53.8107 401.39C54.4107 404.09 56.7107 405.59 59.2107 405.39L69.3107 404.39L66.9107 414.09C66.7107 414.99 66.6107 416.09 67.0107 416.99C67.9107 419.49 70.3107 420.69 72.6107 420.29L82.6107 418.49L81.0107 428.39C80.8107 429.39 80.9107 430.39 81.3107 431.29C82.4107 433.69 84.9107 434.79 87.2107 434.09L97.0107 431.39L96.2107 441.39C96.1107 442.39 96.3107 443.39 96.7107 444.19C97.9107 446.49 100.511 447.39 102.811 446.59L112.411 443.19V453.19C112.411 454.19 112.611 455.19 113.211 455.99C114.611 458.19 117.311 458.79 119.511 457.89L128.711 453.69L129.511 463.69C129.611 464.69 129.911 465.59 130.511 466.39C132.111 468.39 134.811 468.89 136.911 467.69L145.811 462.79L147.411 472.69C147.611 473.69 147.911 474.59 148.611 475.29C150.411 477.19 153.111 477.39 155.111 476.09L163.511 470.39L165.911 480.09C166.111 480.99 166.611 481.89 167.311 482.59C169.211 484.39 172.011 484.39 173.811 482.89L181.711 476.59L184.911 486.09C185.211 486.99 185.711 487.89 186.511 488.49C188.611 490.09 191.311 489.89 193.011 488.29L200.411 481.39L204.411 490.59C204.811 491.49 205.411 492.29 206.211 492.79C208.411 494.19 211.111 493.79 212.711 491.99L219.511 484.49L224.211 493.39C224.511 493.99 225.011 494.59 225.511 495.09C227.911 496.89 230.911 496.29 232.511 494.19L238.711 486.09L244.111 494.49C244.611 495.29 245.311 495.99 246.211 496.39C248.611 497.49 251.211 496.59 252.511 494.59L258.011 486.09L264.111 494.09C264.711 494.89 265.511 495.49 266.411 495.79C268.911 496.69 271.411 495.59 272.511 493.49L277.311 484.49L284.011 491.89C284.711 492.59 285.511 493.19 286.411 493.39C288.911 494.09 291.311 492.79 292.311 490.59L296.311 481.29L303.611 488.19C304.311 488.89 305.211 489.39 306.111 489.49C308.711 489.99 311.011 488.49 311.711 486.19L315.011 476.59L322.811 482.79C323.611 483.39 324.511 483.79 325.411 483.89C328.011 484.09 330.211 482.49 330.811 480.19L333.311 470.39L341.611 475.99C342.411 476.49 343.311 476.89 344.311 476.89C346.911 476.89 348.911 475.09 349.311 472.69L351.011 462.69L359.811 467.59C360.611 468.09 361.611 468.39 362.611 468.29C365.211 468.09 367.111 466.09 367.311 463.69L368.111 453.59L377.211 457.69C378.211 458.19 379.311 458.29 380.411 458.09C382.811 457.59 384.411 455.49 384.411 453.19V442.99L394.011 446.39C396.211 447.19 398.811 446.29 400.111 444.09C400.611 443.19 400.711 442.29 400.611 441.29L399.811 431.29L409.611 433.99C411.911 434.59 414.411 433.49 415.511 431.19C415.911 430.29 416.011 429.29 415.811 428.29L414.211 418.39L424.211 420.19C426.511 420.59 429.011 419.29 429.811 416.89C430.111 415.99 430.111 414.99 429.911 413.99L427.511 404.29L437.611 405.29C440.011 405.59 442.411 403.99 443.011 401.29C443.211 400.39 443.111 399.49 442.811 398.69L439.611 389.09L449.811 389.29C452.211 389.29 454.311 387.69 454.811 385.09C455.011 384.09 454.811 383.09 454.411 382.19L450.411 372.99L460.411 372.39C461.411 372.29 462.311 372.09 463.111 371.49C465.211 369.89 465.711 367.19 464.611 365.09L459.811 356.09L469.711 354.69C470.711 354.59 471.611 354.19 472.311 353.59C474.311 351.89 474.511 349.09 473.211 347.09L467.711 338.59L477.511 336.39C478.411 336.19 479.411 335.69 480.011 334.99C481.811 333.09 481.911 330.39 480.411 328.49L474.211 320.39L483.811 317.39C484.711 317.09 485.611 316.59 486.211 315.79C487.911 313.79 487.711 310.99 486.111 309.29L479.311 301.79L488.611 297.99C489.511 297.59 490.311 297.09 490.911 296.29C492.411 294.19 492.011 291.39 490.311 289.79L482.911 282.79L492.011 278.19C494.111 277.09 495.311 274.59 494.411 272.19C494.111 271.29 493.511 270.49 492.711 269.89L484.911 263.59L493.411 258.29C494.311 257.99 495.011 257.29 495.411 256.49ZM248.511 479.59C121.411 479.59 18.3107 376.49 18.3107 249.39C18.3107 122.29 121.311 19.1904 248.511 19.1904C375.711 19.1904 478.711 122.29 478.711 249.39C478.711 376.49 375.611 479.59 248.511 479.59Z" fill="black"/>
<path d="M41.4107 329.29C38.6107 322.19 41.2107 316.89 41.2107 316.89L47.8107 317.99C47.8107 317.99 46.1107 322.39 47.7107 326.39C49.9107 331.89 55.0107 332.89 59.1107 331.19C63.4107 329.49 66.6107 324.89 64.5107 319.59C62.8107 315.29 57.9107 313.39 57.9107 313.39L61.6107 307.69C61.6107 307.69 68.0107 309.79 71.0107 317.29C74.6107 326.29 70.6107 334.89 62.1107 338.29C53.8107 341.79 44.8107 337.89 41.4107 329.29Z" fill="black"/>
<path d="M32.2107 298.99L31.0107 291.49L43.2107 289.49L41.4107 278.39L29.2107 280.39L28.0107 272.89L58.5107 267.79L59.7107 275.29L47.7107 277.29L49.5107 288.39L61.5107 286.39L62.7107 293.89L32.2107 298.99Z" fill="black"/>
<path d="M27.0107 251.69L27.1107 244.09L58.1107 244.69L58.0107 252.29L27.0107 251.69Z" fill="black"/>
<path d="M30.0107 210.09C31.3107 202.59 36.2107 199.39 36.2107 199.39L41.2107 203.79C41.2107 203.79 37.5107 206.69 36.8107 210.89C35.8107 216.69 39.7107 220.19 44.1107 220.99C48.6107 221.79 53.8107 219.59 54.7107 213.89C55.5107 209.29 52.3107 205.19 52.3107 205.19L58.4107 202.29C58.4107 202.29 62.8107 207.49 61.4107 215.39C59.8107 224.89 51.9107 230.19 42.9107 228.69C34.1107 227.19 28.5107 219.19 30.0107 210.09Z" fill="black"/>
<path d="M66.4107 174.19L62.9107 183.19L68.3107 187.29L65.5107 194.59L40.4107 173.59L43.3107 166.19L76.0107 167.59L73.2107 174.89L66.4107 174.19ZM48.4107 172.39C48.4107 172.39 51.3107 174.29 52.9107 175.49L57.9107 179.29L60.1107 173.59L53.9107 172.99C51.8107 172.89 48.4107 172.39 48.4107 172.39Z" fill="black"/>
<path d="M62.4107 128.49C66.7107 121.89 72.3107 120.69 72.3107 120.69L75.1107 126.79C75.1107 126.79 71.0107 127.89 68.6107 131.59C65.1107 136.99 67.1107 141.49 71.0107 143.99C75.9107 147.19 81.1107 145.69 83.7107 141.69C85.7107 138.69 85.2107 135.19 85.2107 135.19L83.2107 133.89L80.8107 137.59L75.4107 134.09L81.4107 124.79L96.1107 134.29L92.7107 139.59L92.0107 139.09C91.5107 138.69 90.9107 138.39 90.9107 138.39V138.49C90.9107 138.49 91.5107 142.49 88.7107 146.79C84.4107 153.39 75.5107 156.29 67.0107 150.79C59.5107 145.89 57.3107 136.39 62.4107 128.49Z" fill="black"/>
<path d="M92.8107 91.4904C99.5107 84.9904 109.211 85.0904 115.411 91.3904C121.811 97.8904 121.911 107.69 115.211 114.29C108.511 120.89 98.7107 120.59 92.3107 114.09C86.1107 107.69 86.2107 97.9904 92.8107 91.4904ZM110.411 109.29C113.711 106.09 113.611 100.59 109.911 96.7904C106.411 93.1904 101.011 93.0904 97.7107 96.2904C94.4107 99.4904 94.4107 104.89 98.0107 108.49C101.611 112.29 107.111 112.59 110.411 109.29Z" fill="black"/>
<path d="M146.911 60.1904L138.611 64.4904L135.611 58.6904L159.011 46.6904L162.011 52.4904L153.711 56.7904L164.911 78.5904L158.211 82.0904L146.911 60.1904Z" fill="black"/>
<path d="M175.011 40.5904L193.511 34.8904L195.411 41.0904L184.111 44.4904L185.711 49.8904L194.711 47.0904L196.611 53.2904L187.611 56.0904L189.311 61.6904L201.211 58.0904L203.111 64.2904L184.011 70.1904L175.011 40.5904Z" fill="black"/>
<path d="M232.411 53.3904L222.811 54.3904L221.611 61.0904L213.911 61.8904L221.111 29.9904L229.011 29.1904L242.711 58.7904L235.011 59.5904L232.411 53.3904ZM225.811 36.5904C225.811 36.5904 225.511 39.9904 225.111 41.9904L224.011 48.1904L230.111 47.5904L227.811 41.7904C226.911 39.7904 225.911 36.5904 225.811 36.5904Z" fill="black"/>
<path d="M269.811 28.7904C277.411 29.4904 281.011 34.0904 281.011 34.0904L277.011 39.4904C277.011 39.4904 273.811 36.0904 269.611 35.6904C263.711 35.1904 260.511 39.2904 260.111 43.7904C259.711 48.3904 262.311 53.2904 268.011 53.7904C272.711 54.1904 276.511 50.6904 276.511 50.6904L279.911 56.5904C279.911 56.5904 275.111 61.3904 267.111 60.6904C257.511 59.8904 251.511 52.4904 252.311 43.2904C253.111 34.2904 260.511 27.9904 269.811 28.7904Z" fill="black"/>
<path d="M300.011 33.8904L307.211 36.0904L303.611 47.9904L314.411 51.1904L318.011 39.2904L325.211 41.4904L316.311 71.1904L309.111 68.9904L312.611 57.3904L301.811 54.1904L298.311 65.7904L291.111 63.5904L300.011 33.8904Z" fill="black"/>
<path d="M344.011 49.6904L361.111 58.7904L358.111 64.4904L347.711 58.9904L345.111 63.9904L353.411 68.3904L350.411 74.0904L342.111 69.6904L339.411 74.8904L350.411 80.6904L347.411 86.3904L329.711 77.0904L344.011 49.6904Z" fill="black"/>
<path d="M377.911 69.6904L386.311 76.3904C388.811 78.3904 389.811 79.4904 390.511 80.6904C392.411 83.8904 392.211 87.7904 389.311 91.2904C387.211 93.8904 383.811 95.6904 380.411 94.9904L380.311 95.0904C380.311 95.0904 380.311 95.7904 380.111 97.2904L378.011 109.49L371.411 104.19L373.611 92.5904L370.811 90.3904L364.311 98.5904L358.411 93.8904L377.911 69.6904ZM377.611 87.3904C379.511 88.8904 381.511 88.7904 383.011 86.8904C384.511 85.0904 384.611 83.4904 381.711 81.0904L379.711 79.4904L375.011 85.3904L377.611 87.3904Z" fill="black"/>
<path d="M395.411 113.59C395.411 113.59 395.311 118.29 397.811 121.29C398.811 122.49 400.411 123.39 401.811 122.09C404.611 119.69 395.411 109.19 402.611 102.99C406.911 99.2904 412.911 100.39 416.911 105.09C421.211 110.09 420.711 114.89 420.711 114.89L413.911 116.49C413.911 116.49 413.911 112.39 411.511 109.49C410.511 108.29 408.811 107.49 407.511 108.59C404.611 111.09 414.211 121.19 406.811 127.59C402.911 130.99 397.011 130.89 392.411 125.59C387.711 120.09 388.411 114.19 388.411 114.19L395.411 113.59Z" fill="black"/>
<path d="M445.511 147.49L448.611 154.39L430.711 162.39C427.711 163.69 427.011 166.39 428.311 169.29C429.611 172.29 432.111 173.49 435.011 172.19L452.911 164.19L456.011 171.09L438.111 179.09C431.711 181.89 425.211 179.29 422.011 172.19C418.811 164.99 421.211 158.39 427.611 155.49L445.511 147.49Z" fill="black"/>
<path d="M462.711 191.49L464.311 198.99L451.911 210.29C450.211 211.89 447.311 213.89 447.311 213.89V213.99C447.311 213.99 450.511 212.99 452.411 212.59L466.611 209.69L468.111 217.09L437.811 223.39L436.311 215.99L448.711 204.59C450.411 202.99 453.311 200.99 453.311 200.99V200.89C453.311 200.89 450.111 201.89 448.211 202.29L434.111 205.19L432.611 197.79L462.711 191.49Z" fill="black"/>
<path d="M469.711 237.79L470.011 245.39L439.111 246.49L438.811 238.89L469.711 237.79Z" fill="black"/>
<path d="M468.311 280.29C467.011 289.49 459.211 295.29 450.411 294.09C441.411 292.79 435.311 285.09 436.611 275.89C437.911 266.69 445.911 260.89 454.911 262.09C463.711 263.29 469.611 270.99 468.311 280.29ZM443.511 276.79C442.911 281.39 446.311 285.59 451.511 286.29C456.511 286.99 460.811 283.79 461.411 279.29C462.011 274.69 458.811 270.49 453.811 269.79C448.611 269.09 444.111 272.19 443.511 276.79Z" fill="black"/>
<path d="M460.311 315.49L457.611 322.69L441.011 325.59C438.711 325.99 435.111 326.19 435.111 326.19V326.29C435.111 326.29 438.311 327.19 440.211 327.79L453.711 332.89L451.011 339.99L422.111 328.99L424.811 321.89L441.311 318.99C443.611 318.59 447.211 318.39 447.211 318.39V318.29C447.211 318.29 444.011 317.39 442.111 316.79L428.611 311.69L431.311 304.59L460.311 315.49Z" fill="black"/>
<path d="M107.511 411.39L100.411 404.89L94.7107 408.49L88.9107 403.29L117.511 387.39L123.411 392.69L110.411 422.69L104.611 417.49L107.511 411.39ZM115.611 395.29C115.611 395.29 112.811 397.29 111.111 398.39L105.711 401.69L110.211 405.79L113.011 400.19C113.911 398.29 115.711 395.29 115.611 395.29Z" fill="black"/>
<path d="M135.311 402.49L151.011 413.09L147.411 418.49L138.011 412.09L134.411 417.49L142.211 422.79L138.611 428.19L130.811 422.89L124.411 432.39L118.111 428.19L135.311 402.49Z" fill="black"/>
<path d="M164.211 427.09L155.611 423.29L158.311 417.39L182.311 428.19L179.611 434.09L171.011 430.29L161.011 452.59L154.111 449.49L164.211 427.09Z" fill="black"/>
<path d="M203.911 434.39L211.311 435.79L206.711 459.79L219.111 462.19L217.911 468.59L198.111 464.79L203.911 434.39Z" fill="black"/>
<path d="M244.611 438.89C253.911 439.09 260.611 446.19 260.511 454.99C260.311 464.09 253.311 471.09 244.011 470.89C234.711 470.69 228.011 463.49 228.111 454.39C228.311 445.49 235.311 438.69 244.611 438.89ZM244.111 463.99C248.711 464.09 252.511 460.19 252.611 454.89C252.711 449.79 249.111 445.89 244.411 445.89C239.811 445.79 236.011 449.49 235.911 454.59C235.911 459.79 239.511 463.89 244.111 463.99Z" fill="black"/>
<path d="M283.311 435.79C290.811 434.49 295.511 438.09 295.511 438.09L293.011 444.29C293.011 444.29 289.111 441.79 284.811 442.49C279.011 443.49 276.911 448.29 277.711 452.69C278.511 457.19 282.311 461.39 287.911 460.39C292.511 459.59 295.311 455.19 295.311 455.19L300.111 459.99C300.111 459.99 296.711 465.89 288.711 467.19C279.211 468.79 271.511 463.19 270.011 454.09C268.511 445.39 274.111 437.39 283.311 435.79Z" fill="black"/>
<path d="M325.611 449.79L316.511 453.09L316.911 459.79L309.611 462.39L309.111 429.69L316.611 426.99L336.911 452.59L329.611 455.19L325.611 449.79ZM315.111 434.99C315.111 434.99 315.611 438.39 315.711 440.39L316.111 446.69L321.811 444.59L318.111 439.49C317.011 437.99 315.211 434.99 315.111 434.99Z" fill="black"/>
<path d="M332.911 420.09L339.511 416.39L351.311 437.79L362.411 431.69L365.511 437.39L347.811 447.09L332.911 420.09Z" fill="black"/>
<path d="M384.411 415.89L389.311 411.49L380.711 401.89C379.911 400.99 379.111 400.09 379.111 400.09L379.011 400.19C379.011 400.19 379.311 401.09 379.211 402.19L378.911 404.69L372.511 404.09L373.511 392.69L378.411 388.39L394.711 406.69L399.611 402.29L403.911 407.19L388.711 420.69L384.411 415.89Z" fill="black"/>
</svg>
