<?xml version="1.0" encoding="UTF-8" standalone="no"?>
<svg
   width="495"
   height="495"
   viewBox="0 0 495 495"
   fill="none"
   version="1.1"
   id="svg134"
   sodipodi:docname="ctu-seal.svg"
   inkscape:version="1.1.2 (0a00cf5339, 2022-02-04)"
   xmlns:inkscape="http://www.inkscape.org/namespaces/inkscape"
   xmlns:sodipodi="http://sodipodi.sourceforge.net/DTD/sodipodi-0.dtd"
   xmlns="http://www.w3.org/2000/svg"
   xmlns:svg="http://www.w3.org/2000/svg">
  <defs
     id="defs138" />
  <sodipodi:namedview
     id="namedview136"
     pagecolor="#ffffff"
     bordercolor="#111111"
     borderopacity="1"
     inkscape:pageshadow="0"
     inkscape:pageopacity="0"
     inkscape:pagecheckerboard="1"
     showgrid="false"
     inkscape:zoom="1.2686869"
     inkscape:cx="247.5"
     inkscape:cy="247.10589"
     inkscape:window-width="2560"
     inkscape:window-height="1516"
     inkscape:window-x="0"
     inkscape:window-y="0"
     inkscape:window-maximized="1"
     inkscape:current-layer="svg134" />
  <path
     d="M253.611 416.79C251.911 416.79 250.511 415.39 250.411 413.69C250.311 411.89 251.711 410.49 253.511 410.39C254.011 410.39 254.411 410.39 254.911 410.29C256.711 410.19 258.111 411.59 258.211 413.29C258.311 415.09 256.911 416.49 255.211 416.59C254.711 416.59 254.211 416.59 253.811 416.69C253.711 416.79 253.611 416.79 253.611 416.79ZM239.411 416.69C239.311 416.69 239.311 416.69 239.211 416.69C238.711 416.69 238.211 416.69 237.811 416.59C236.011 416.49 234.711 414.99 234.811 413.19C234.911 411.39 236.411 410.09 238.211 410.19C238.711 410.19 239.111 410.19 239.611 410.29C241.411 410.39 242.711 411.89 242.611 413.59C242.511 415.39 241.111 416.69 239.411 416.69ZM263.511 416.19C261.911 416.19 260.511 414.99 260.311 413.29C260.111 411.59 261.411 409.99 263.211 409.79C263.711 409.79 264.111 409.69 264.611 409.69C266.311 409.49 267.911 410.79 268.111 412.49C268.311 414.19 267.011 415.79 265.311 415.99C264.811 415.99 264.311 416.09 263.911 416.09C263.711 416.19 263.611 416.19 263.511 416.19ZM229.611 415.99C229.511 415.99 229.411 415.99 229.311 415.99C228.811 415.89 228.311 415.89 227.911 415.79C226.211 415.59 224.911 413.99 225.111 412.29C225.311 410.59 226.911 409.29 228.611 409.49C229.111 409.59 229.511 409.59 230.011 409.69C231.711 409.89 233.011 411.39 232.811 413.19C232.511 414.79 231.211 415.99 229.611 415.99ZM278.911 413.99C277.411 413.99 276.111 412.89 275.811 411.39C275.511 409.69 276.611 407.99 278.311 407.69L279.711 407.39C281.411 407.09 283.111 408.19 283.411 409.89C283.711 411.59 282.611 413.29 280.911 413.59L279.511 413.89C279.311 413.89 279.111 413.99 278.911 413.99ZM214.211 413.59C214.011 413.59 213.811 413.59 213.611 413.49L212.211 413.19C210.511 412.79 209.411 411.19 209.711 409.39C210.111 407.69 211.711 406.59 213.511 406.89L214.911 407.19C216.611 407.59 217.711 409.19 217.411 410.99C217.011 412.49 215.711 413.59 214.211 413.59ZM288.511 411.79C287.111 411.79 285.811 410.79 285.411 409.39C285.011 407.69 286.011 405.99 287.711 405.49C288.111 405.39 288.611 405.29 289.011 405.19C290.711 404.79 292.411 405.79 292.911 407.49C293.311 409.19 292.311 410.89 290.611 411.39C290.111 411.49 289.711 411.59 289.211 411.79C289.111 411.79 288.811 411.79 288.511 411.79ZM204.511 411.29C204.211 411.29 204.011 411.29 203.711 411.19L202.311 410.79C200.611 410.29 199.611 408.59 200.111 406.89C200.611 405.19 202.311 404.19 204.011 404.69L205.311 405.09C207.011 405.59 208.011 407.29 207.511 408.99C207.211 410.39 205.911 411.29 204.511 411.29ZM303.411 407.29C302.111 407.29 300.911 406.49 300.411 405.19C299.811 403.49 300.711 401.69 302.311 401.09C302.711 400.89 303.211 400.79 303.611 400.59C305.211 399.99 307.111 400.79 307.711 402.49C308.311 404.09 307.511 405.99 305.811 406.59C305.311 406.79 304.911 406.89 304.411 407.09C304.111 407.19 303.811 407.29 303.411 407.29ZM189.711 406.59C189.311 406.59 189.011 406.49 188.611 406.39C188.111 406.19 187.711 406.09 187.211 405.89C185.611 405.29 184.711 403.39 185.411 401.79C186.011 400.19 187.911 399.29 189.511 399.99C189.911 400.19 190.411 400.29 190.811 400.49C192.411 401.09 193.311 402.89 192.711 404.59C192.211 405.79 191.011 406.59 189.711 406.59ZM312.711 403.69C311.511 403.69 310.311 402.99 309.811 401.79C309.111 400.19 309.911 398.29 311.511 397.59C311.911 397.39 312.311 397.19 312.811 397.09C314.411 396.39 316.311 397.09 317.011 398.69C317.711 400.29 317.011 402.19 315.411 402.89C315.011 403.09 314.511 403.29 314.111 403.49C313.511 403.59 313.111 403.69 312.711 403.69ZM180.511 402.89C180.111 402.89 179.611 402.79 179.211 402.59C178.811 402.39 178.311 402.19 177.911 401.99C176.311 401.29 175.611 399.39 176.311 397.79C177.011 396.19 178.911 395.49 180.511 396.19C180.911 396.39 181.311 396.59 181.811 396.79C183.411 397.49 184.111 399.39 183.411 400.99C182.911 402.19 181.811 402.89 180.511 402.89ZM326.711 396.89C325.611 396.89 324.511 396.29 323.911 395.19C323.111 393.69 323.611 391.69 325.211 390.89C325.611 390.69 326.011 390.49 326.411 390.19C327.911 389.39 329.911 389.89 330.711 391.39C331.511 392.89 331.011 394.89 329.511 395.69C329.111 395.89 328.711 396.19 328.211 396.39C327.711 396.69 327.211 396.89 326.711 396.89ZM166.611 395.99C166.111 395.99 165.511 395.89 165.111 395.59C164.711 395.39 164.311 395.09 163.811 394.89C162.311 393.99 161.711 392.09 162.611 390.59C163.511 389.09 165.411 388.49 166.911 389.39C167.311 389.59 167.711 389.89 168.111 390.09C169.611 390.99 170.211 392.89 169.311 394.39C168.811 395.39 167.711 395.99 166.611 395.99ZM335.311 391.89C334.211 391.89 333.211 391.39 332.611 390.39C331.711 388.89 332.111 386.99 333.611 385.99C334.011 385.79 334.411 385.49 334.811 385.29C336.311 384.39 338.211 384.79 339.211 386.29C340.211 387.79 339.711 389.69 338.211 390.69C337.811 390.99 337.411 391.19 337.011 391.49C336.411 391.69 335.811 391.89 335.311 391.89ZM158.111 390.89C157.511 390.89 156.911 390.69 156.411 390.39C156.011 390.09 155.611 389.89 155.211 389.59C153.711 388.59 153.311 386.69 154.311 385.19C155.311 383.69 157.211 383.29 158.711 384.29C159.111 384.59 159.511 384.79 159.911 384.99C161.411 385.89 161.811 387.89 160.911 389.39C160.211 390.39 159.211 390.89 158.111 390.89ZM348.111 382.99C347.111 382.99 346.211 382.59 345.611 381.69C344.511 380.29 344.811 378.29 346.211 377.19C346.611 376.89 346.911 376.59 347.311 376.39C348.711 375.29 350.711 375.59 351.811 376.99C352.911 378.39 352.611 380.39 351.211 381.49C350.811 381.79 350.411 382.09 350.111 382.39C349.411 382.79 348.811 382.99 348.111 382.99ZM145.411 381.89C144.711 381.89 144.011 381.69 143.511 381.19C143.111 380.89 142.711 380.59 142.411 380.29C141.011 379.19 140.811 377.19 141.911 375.79C143.011 374.39 145.011 374.19 146.411 375.29C146.811 375.59 147.111 375.89 147.511 376.19C148.911 377.29 149.111 379.29 148.111 380.69C147.311 381.49 146.411 381.89 145.411 381.89ZM355.811 376.79C354.911 376.79 354.011 376.39 353.411 375.69C352.311 374.39 352.411 372.39 353.711 371.19C354.111 370.89 354.411 370.59 354.811 370.29C356.111 369.09 358.111 369.29 359.311 370.59C360.511 371.89 360.311 373.89 359.011 375.09C358.611 375.39 358.311 375.69 357.911 375.99C357.311 376.59 356.511 376.79 355.811 376.79ZM137.811 375.59C137.111 375.59 136.311 375.29 135.711 374.79C135.311 374.49 135.011 374.19 134.611 373.79C133.311 372.59 133.211 370.59 134.311 369.29C135.511 367.99 137.511 367.89 138.811 368.99C139.111 369.29 139.511 369.59 139.811 369.89C141.111 371.09 141.311 373.09 140.111 374.39C139.511 375.19 138.711 375.59 137.811 375.59ZM367.111 366.09C366.311 366.09 365.511 365.79 364.911 365.19C363.611 363.99 363.611 361.99 364.811 360.69C365.111 360.39 365.411 359.99 365.811 359.69C367.011 358.39 369.011 358.39 370.311 359.59C371.611 360.79 371.611 362.79 370.411 364.09C370.111 364.39 369.711 364.79 369.411 365.09C368.811 365.79 367.911 366.09 367.111 366.09ZM126.611 364.79C125.811 364.79 124.911 364.49 124.311 363.79C124.011 363.49 123.611 363.09 123.311 362.69C122.111 361.39 122.211 359.39 123.511 358.19C124.811 356.99 126.811 357.09 128.011 358.39C128.311 358.69 128.611 359.09 129.011 359.39C130.211 360.69 130.111 362.69 128.911 363.89C128.211 364.49 127.411 364.79 126.611 364.79ZM373.811 358.79C373.111 358.79 372.311 358.49 371.711 357.99C370.411 356.89 370.211 354.89 371.411 353.49C371.711 353.09 372.011 352.79 372.311 352.39C373.411 351.09 375.411 350.89 376.811 351.99C378.211 353.09 378.311 355.09 377.211 356.49C376.911 356.89 376.611 357.19 376.311 357.59C375.611 358.39 374.711 358.79 373.811 358.79ZM120.011 357.39C119.111 357.39 118.211 356.99 117.611 356.29C117.311 355.89 117.011 355.59 116.711 355.19C115.611 353.79 115.811 351.79 117.111 350.69C118.511 349.59 120.511 349.79 121.611 351.09C121.911 351.49 122.211 351.79 122.511 352.19C123.611 353.49 123.511 355.49 122.111 356.69C121.411 357.19 120.711 357.39 120.011 357.39ZM383.311 346.49C382.711 346.49 382.011 346.29 381.511 345.89C380.111 344.89 379.711 342.89 380.711 341.49C381.011 341.09 381.211 340.69 381.511 340.39C382.511 338.99 384.511 338.59 385.911 339.59C387.311 340.59 387.711 342.59 386.711 343.99C386.411 344.39 386.211 344.79 385.911 345.19C385.311 346.09 384.311 346.49 383.311 346.49ZM110.611 344.99C109.611 344.99 108.611 344.49 108.011 343.59C107.711 343.19 107.511 342.79 107.211 342.39C106.211 340.89 106.611 338.99 108.011 337.99C109.511 336.99 111.411 337.39 112.411 338.79C112.711 339.19 112.911 339.59 113.211 339.89C114.211 341.29 113.811 343.29 112.411 344.29C111.811 344.79 111.211 344.99 110.611 344.99ZM388.811 338.29C388.211 338.29 387.611 338.09 387.111 337.79C385.611 336.89 385.211 334.89 386.111 333.39C386.311 332.99 386.611 332.59 386.811 332.19C387.711 330.69 389.711 330.19 391.211 331.09C392.711 331.99 393.211 333.99 392.311 335.49C392.011 335.89 391.811 336.29 391.511 336.69C390.911 337.79 389.911 338.29 388.811 338.29ZM105.211 336.69C104.111 336.69 103.111 336.19 102.511 335.19L101.811 333.99C100.911 332.49 101.411 330.49 102.911 329.59C104.411 328.69 106.411 329.19 107.311 330.69L108.011 331.89C108.911 333.39 108.411 335.39 106.911 336.29C106.311 336.49 105.711 336.69 105.211 336.69ZM396.411 324.69C395.911 324.69 395.411 324.59 395.011 324.39C393.411 323.59 392.811 321.69 393.611 320.09C393.811 319.69 394.011 319.29 394.211 318.89C395.011 317.29 396.911 316.69 398.411 317.39C400.011 318.19 400.611 320.09 399.911 321.59C399.711 321.99 399.511 322.49 399.311 322.89C398.711 324.09 397.611 324.69 396.411 324.69ZM97.7107 322.99C96.5107 322.99 95.4107 322.29 94.8107 321.19C94.6107 320.79 94.4107 320.29 94.2107 319.89C93.4107 318.29 94.1107 316.39 95.7107 315.69C97.3107 314.89 99.2107 315.59 99.9107 317.19C100.111 317.59 100.311 317.99 100.511 318.49C101.311 320.09 100.611 321.99 99.0107 322.69C98.7107 322.89 98.2107 322.99 97.7107 322.99ZM400.511 315.69C400.111 315.69 399.711 315.59 399.311 315.39C397.711 314.69 396.911 312.79 397.611 311.19C397.811 310.79 398.011 310.39 398.111 309.89C398.811 308.29 400.611 307.49 402.311 308.19C403.911 308.89 404.711 310.69 404.011 312.39C403.811 312.79 403.611 313.29 403.411 313.69C403.011 314.99 401.811 315.69 400.511 315.69ZM93.7107 313.99C92.5107 313.99 91.3107 313.29 90.8107 311.99C90.6107 311.59 90.4107 311.09 90.3107 310.69C89.6107 309.09 90.4107 307.19 92.1107 306.59C93.7107 305.89 95.6107 306.69 96.2107 308.39C96.4107 308.79 96.5107 309.29 96.7107 309.69C97.4107 311.29 96.6107 313.19 95.0107 313.79C94.5107 313.89 94.1107 313.99 93.7107 313.99ZM406.011 301.09C405.711 301.09 405.411 301.09 405.011 300.89C403.311 300.39 402.411 298.59 402.911 296.89C403.011 296.49 403.211 295.99 403.311 295.59C403.811 293.89 405.611 292.99 407.311 293.49C409.011 293.99 409.911 295.79 409.411 297.49C409.311 297.99 409.111 298.39 409.011 298.89C408.611 300.29 407.311 301.09 406.011 301.09ZM88.4107 299.29C87.0107 299.29 85.8107 298.39 85.4107 297.09C85.3107 296.59 85.1107 296.19 85.0107 295.69C84.5107 293.99 85.5107 292.19 87.1107 291.79C88.8107 291.29 90.6107 292.29 91.0107 293.89C91.1107 294.29 91.3107 294.79 91.4107 295.19C91.9107 296.89 91.0107 298.69 89.3107 299.19C89.1107 299.19 88.7107 299.29 88.4107 299.29ZM408.711 291.59C408.411 291.59 408.211 291.59 407.911 291.49C406.211 291.09 405.211 289.29 405.611 287.59C405.711 287.19 405.811 286.69 405.911 286.29C406.311 284.59 408.011 283.59 409.711 283.99C411.411 284.39 412.411 286.09 412.011 287.79C411.911 288.29 411.811 288.69 411.711 289.19C411.411 290.69 410.111 291.59 408.711 291.59ZM85.8107 289.69C84.4107 289.69 83.1107 288.69 82.7107 287.29C82.6107 286.79 82.5107 286.39 82.4107 285.89C82.0107 284.19 83.1107 282.49 84.8107 282.09C86.5107 281.69 88.2107 282.79 88.6107 284.49C88.7107 284.99 88.8107 285.39 88.9107 285.79C89.3107 287.49 88.3107 289.19 86.6107 289.59C86.3107 289.69 86.1107 289.69 85.8107 289.69ZM411.811 276.39C411.611 276.39 411.511 276.39 411.311 276.39C409.611 276.09 408.411 274.49 408.611 272.79C408.711 272.29 408.711 271.89 408.811 271.39C409.111 269.69 410.711 268.49 412.411 268.69C414.111 268.99 415.311 270.59 415.111 272.29C415.011 272.79 415.011 273.19 414.911 273.69C414.711 275.29 413.311 276.39 411.811 276.39ZM82.9107 274.39C81.3107 274.39 80.0107 273.29 79.8107 271.69C79.7107 271.19 79.7107 270.69 79.6107 270.29C79.4107 268.59 80.6107 266.99 82.3107 266.69C84.0107 266.49 85.6107 267.69 85.9107 269.39C86.0107 269.89 86.0107 270.29 86.1107 270.79C86.3107 272.49 85.1107 274.09 83.4107 274.39C83.2107 274.39 83.0107 274.39 82.9107 274.39ZM413.011 266.49C412.911 266.49 412.811 266.49 412.711 266.49C411.011 266.29 409.711 264.79 409.811 262.99C409.811 262.49 409.911 262.09 409.911 261.59C410.111 259.89 411.611 258.49 413.311 258.69C415.011 258.89 416.311 260.39 416.211 262.09C416.211 262.59 416.111 263.09 416.111 263.49C416.011 265.29 414.611 266.49 413.011 266.49ZM81.8107 264.59C80.2107 264.59 78.8107 263.29 78.6107 261.69C78.6107 261.19 78.5107 260.69 78.5107 260.29C78.4107 258.49 79.7107 256.99 81.4107 256.89C83.1107 256.79 84.7107 258.09 84.8107 259.79C84.8107 260.29 84.9107 260.69 84.9107 261.19C85.0107 262.89 83.7107 264.49 82.0107 264.59C82.0107 264.59 81.9107 264.59 81.8107 264.59ZM413.811 250.99C412.011 250.99 410.611 249.59 410.611 247.79V247.39C410.611 246.89 410.611 246.49 410.611 245.99C410.611 244.19 412.011 242.79 413.811 242.79C415.511 242.79 417.011 244.19 417.011 245.99C417.011 246.49 417.011 246.99 417.011 247.39V247.79C416.911 249.59 415.511 250.99 413.811 250.99ZM81.2107 249.09C79.4107 249.09 78.0107 247.59 78.0107 245.89C78.0107 245.39 78.0107 244.89 78.0107 244.49C78.0107 242.69 79.5107 241.29 81.2107 241.39C83.0107 241.39 84.4107 242.89 84.3107 244.59C84.3107 245.09 84.3107 245.49 84.3107 245.99C84.4107 247.69 83.0107 249.09 81.2107 249.09ZM413.511 240.69C411.811 240.69 410.411 239.39 410.311 237.69C410.311 237.19 410.211 236.79 410.211 236.29C410.111 234.49 411.411 232.99 413.211 232.89C415.011 232.79 416.511 234.09 416.611 235.89C416.611 236.39 416.711 236.89 416.711 237.29C416.811 239.09 415.511 240.59 413.711 240.69C413.611 240.69 413.511 240.69 413.511 240.69ZM81.6107 239.19C81.5107 239.19 81.5107 239.19 81.4107 239.19C79.6107 239.09 78.3107 237.59 78.4107 235.79C78.4107 235.29 78.5107 234.79 78.5107 234.39C78.6107 232.69 80.2107 231.29 81.9107 231.49C83.6107 231.59 85.0107 233.19 84.8107 234.89C84.8107 235.39 84.7107 235.79 84.7107 236.29C84.7107 237.89 83.3107 239.19 81.6107 239.19ZM411.811 225.29C410.311 225.29 408.911 224.19 408.711 222.59C408.611 222.09 408.611 221.69 408.511 221.19C408.211 219.49 409.411 217.79 411.111 217.59C412.811 217.29 414.511 218.49 414.711 220.19C414.811 220.69 414.911 221.19 414.911 221.59C415.211 223.29 414.011 224.99 412.211 225.19C412.211 225.29 412.011 225.29 411.811 225.29ZM83.4107 223.69C83.2107 223.69 83.1107 223.69 82.9107 223.69C81.2107 223.39 80.0107 221.79 80.3107 220.09C80.4107 219.59 80.5107 219.19 80.5107 218.69C80.8107 216.99 82.4107 215.79 84.2107 216.09C85.9107 216.39 87.1107 217.99 86.8107 219.79C86.7107 220.29 86.6107 220.69 86.6107 221.19C86.3107 222.59 84.9107 223.69 83.4107 223.69ZM410.011 215.49C408.511 215.49 407.211 214.49 406.911 212.99C406.811 212.49 406.711 212.09 406.611 211.59C406.211 209.89 407.311 208.19 409.011 207.79C410.711 207.39 412.411 208.49 412.811 210.19C412.911 210.69 413.011 211.09 413.111 211.59C413.511 213.29 412.411 214.99 410.711 215.39C410.511 215.49 410.311 215.49 410.011 215.49ZM85.3107 213.99C85.1107 213.99 84.8107 213.99 84.6107 213.89C82.9107 213.49 81.8107 211.79 82.2107 210.09C82.3107 209.59 82.4107 209.19 82.5107 208.69C82.9107 206.99 84.6107 205.89 86.3107 206.29C88.0107 206.69 89.1107 208.39 88.7107 210.09C88.6107 210.49 88.5107 210.99 88.4107 211.49C88.0107 212.99 86.7107 213.99 85.3107 213.99ZM406.111 200.49C404.811 200.49 403.511 199.59 403.111 198.29C403.011 197.89 402.811 197.39 402.711 196.99C402.211 195.29 403.111 193.49 404.711 192.99C406.411 192.49 408.211 193.39 408.711 194.99C408.811 195.49 409.011 195.89 409.111 196.39C409.611 198.09 408.711 199.89 407.011 200.39C406.711 200.39 406.411 200.49 406.111 200.49ZM89.4107 198.99C89.1107 198.99 88.7107 198.89 88.4107 198.79C86.7107 198.29 85.8107 196.49 86.4107 194.79C86.5107 194.29 86.7107 193.89 86.9107 193.39C87.5107 191.69 89.3107 190.79 90.9107 191.39C92.6107 191.99 93.5107 193.79 92.9107 195.39C92.8107 195.79 92.6107 196.29 92.5107 196.69C92.0107 198.09 90.7107 198.99 89.4107 198.99ZM402.811 191.09C401.511 191.09 400.311 190.29 399.811 189.09C399.611 188.69 399.511 188.19 399.311 187.79C398.711 186.19 399.511 184.29 401.111 183.69C402.711 183.09 404.611 183.89 405.211 185.49C405.411 185.89 405.611 186.39 405.711 186.79C406.311 188.39 405.511 190.29 403.911 190.89C403.611 190.99 403.211 191.09 402.811 191.09ZM92.7107 189.59C92.3107 189.59 91.9107 189.49 91.5107 189.39C89.9107 188.79 89.1107 186.89 89.7107 185.29C89.9107 184.89 90.1107 184.39 90.2107 183.99C90.9107 182.39 92.7107 181.59 94.3107 182.19C95.9107 182.89 96.7107 184.69 96.1107 186.29C95.9107 186.69 95.8107 187.19 95.6107 187.59C95.2107 188.89 94.0107 189.59 92.7107 189.59ZM396.511 176.79C395.311 176.79 394.211 176.19 393.711 174.99C393.511 174.59 393.311 174.19 393.111 173.79C392.311 172.19 392.911 170.29 394.511 169.49C396.111 168.69 398.011 169.29 398.811 170.89C399.011 171.29 399.211 171.79 399.411 172.19C400.211 173.79 399.511 175.69 398.011 176.49C397.511 176.69 397.011 176.79 396.511 176.79ZM99.1107 175.49C98.6107 175.49 98.1107 175.39 97.7107 175.19C96.1107 174.39 95.5107 172.49 96.3107 170.89C96.5107 170.49 96.7107 169.99 97.0107 169.59C97.8107 167.99 99.7107 167.39 101.311 168.19C102.911 168.99 103.511 170.89 102.711 172.49C102.511 172.89 102.311 173.29 102.111 173.69C101.411 174.79 100.311 175.49 99.1107 175.49ZM391.911 168.09C390.811 168.09 389.711 167.49 389.111 166.49C388.911 166.09 388.611 165.69 388.411 165.29C387.511 163.79 388.011 161.79 389.511 160.99C391.011 160.09 393.011 160.59 393.811 162.09C394.011 162.49 394.311 162.89 394.511 163.29C395.411 164.79 394.811 166.79 393.311 167.59C392.911 167.99 392.411 168.09 391.911 168.09ZM103.911 166.79C103.411 166.79 102.811 166.69 102.311 166.39C100.811 165.49 100.311 163.59 101.211 162.09C101.411 161.69 101.711 161.29 101.911 160.89C102.811 159.39 104.811 158.89 106.311 159.79C107.811 160.69 108.311 162.59 107.411 164.19C107.211 164.59 106.911 164.99 106.711 165.39C106.011 166.19 105.011 166.79 103.911 166.79ZM383.511 154.99C382.511 154.99 381.511 154.49 380.911 153.69C380.611 153.29 380.411 152.89 380.111 152.59C379.111 151.19 379.411 149.19 380.811 148.19C382.211 147.19 384.211 147.49 385.211 148.89C385.511 149.29 385.811 149.69 386.011 150.09C387.011 151.49 386.711 153.49 385.211 154.49C384.811 154.79 384.111 154.99 383.511 154.99ZM112.311 153.69C111.711 153.69 111.011 153.49 110.411 153.09C109.011 152.09 108.611 150.09 109.711 148.69C110.011 148.29 110.311 147.89 110.511 147.49C111.511 146.09 113.511 145.79 114.911 146.79C116.311 147.79 116.611 149.79 115.611 151.19C115.311 151.59 115.111 151.89 114.811 152.29C114.311 153.29 113.311 153.69 112.311 153.69ZM377.511 146.99C376.611 146.99 375.611 146.59 375.011 145.79C374.711 145.39 374.411 145.09 374.111 144.69C373.011 143.29 373.211 141.29 374.611 140.19C376.011 139.09 378.011 139.29 379.111 140.69C379.411 141.09 379.711 141.39 380.011 141.79C381.111 143.19 380.911 145.19 379.511 146.29C378.911 146.79 378.211 146.99 377.511 146.99ZM118.411 145.89C117.711 145.89 117.011 145.69 116.411 145.19C115.011 144.09 114.811 142.09 115.911 140.69C116.211 140.29 116.511 139.99 116.811 139.59C117.911 138.19 119.911 138.09 121.311 139.19C122.711 140.29 122.811 142.29 121.711 143.69C121.411 144.09 121.111 144.39 120.811 144.79C120.211 145.49 119.311 145.89 118.411 145.89ZM367.311 135.29C366.511 135.29 365.611 134.99 365.011 134.29C364.711 133.99 364.411 133.59 364.011 133.29C362.811 131.99 362.811 129.99 364.011 128.79C365.311 127.59 367.311 127.59 368.511 128.79C368.811 129.09 369.211 129.49 369.511 129.79C370.711 131.09 370.711 133.09 369.411 134.29C368.911 134.99 368.111 135.29 367.311 135.29ZM128.711 134.29C127.911 134.29 127.111 133.99 126.511 133.39C125.211 132.19 125.211 130.19 126.511 128.89C126.811 128.59 127.211 128.19 127.511 127.89C128.711 126.69 130.811 126.69 132.011 127.89C133.211 129.09 133.211 131.19 132.011 132.39C131.711 132.69 131.311 133.09 131.011 133.39C130.411 133.89 129.511 134.29 128.711 134.29ZM360.211 128.39C359.411 128.39 358.711 128.09 358.011 127.59C357.711 127.29 357.311 126.99 357.011 126.69C355.711 125.49 355.611 123.49 356.811 122.19C358.011 120.89 360.011 120.79 361.311 121.99C361.711 122.29 362.011 122.59 362.411 122.99C363.711 124.19 363.811 126.19 362.611 127.49C361.911 127.99 361.111 128.39 360.211 128.39ZM135.911 127.39C135.011 127.39 134.211 126.99 133.511 126.39C132.311 125.09 132.411 123.09 133.711 121.89C134.111 121.59 134.411 121.29 134.811 120.89C136.111 119.69 138.111 119.79 139.311 121.19C140.511 122.49 140.411 124.49 139.011 125.69C138.711 125.99 138.311 126.29 138.011 126.59C137.411 127.09 136.611 127.39 135.911 127.39ZM348.311 118.39C347.611 118.39 347.011 118.19 346.411 117.69C346.011 117.39 345.711 117.09 345.311 116.89C343.911 115.79 343.611 113.89 344.711 112.49C345.811 111.09 347.711 110.79 349.111 111.89C349.511 112.19 349.911 112.49 350.211 112.79C351.611 113.89 351.911 115.89 350.811 117.29C350.211 117.99 349.211 118.39 348.311 118.39ZM147.911 117.49C146.911 117.49 146.011 117.09 145.411 116.19C144.311 114.79 144.611 112.79 146.011 111.79C146.411 111.49 146.811 111.19 147.211 110.89C148.611 109.89 150.611 110.19 151.611 111.59C152.611 112.99 152.311 114.99 150.911 115.99C150.511 116.29 150.211 116.59 149.811 116.79C149.211 117.29 148.511 117.49 147.911 117.49ZM340.211 112.59C339.611 112.59 339.011 112.39 338.411 112.09C338.011 111.79 337.611 111.59 337.211 111.29C335.711 110.29 335.311 108.39 336.311 106.89C337.311 105.39 339.211 104.99 340.711 105.99C341.111 106.29 341.511 106.49 341.911 106.79C343.411 107.79 343.711 109.79 342.811 111.19C342.311 112.09 341.311 112.59 340.211 112.59ZM156.011 111.79C155.011 111.79 154.011 111.29 153.311 110.39C152.311 108.89 152.711 106.99 154.211 105.99C154.611 105.69 155.011 105.49 155.411 105.19C156.911 104.19 158.811 104.69 159.811 106.09C160.811 107.59 160.311 109.49 158.911 110.49C158.511 110.79 158.111 110.99 157.711 111.29C157.211 111.59 156.611 111.79 156.011 111.79ZM326.911 104.49C326.411 104.49 325.911 104.39 325.411 104.09C325.011 103.89 324.611 103.69 324.211 103.39C322.711 102.59 322.111 100.59 322.911 99.0904C323.711 97.5904 325.711 96.9904 327.211 97.7904C327.611 97.9904 328.011 98.2904 328.511 98.4904C330.011 99.2904 330.611 101.29 329.811 102.79C329.211 103.89 328.111 104.49 326.911 104.49ZM169.411 103.79C168.311 103.79 167.211 103.19 166.611 102.09C165.811 100.59 166.411 98.5904 167.911 97.7904C168.311 97.5904 168.811 97.2904 169.211 97.0904C170.811 96.2904 172.711 96.8904 173.511 98.3904C174.311 99.9904 173.711 101.89 172.211 102.69C171.811 102.89 171.411 103.09 171.011 103.29C170.411 103.69 169.911 103.79 169.411 103.79ZM318.111 100.09C317.611 100.09 317.211 99.9904 316.811 99.7904C316.411 99.5904 316.011 99.3904 315.511 99.1904C313.911 98.4904 313.211 96.5904 313.911 94.9904C314.611 93.3904 316.511 92.6904 318.111 93.3904C318.511 93.5904 319.011 93.7904 319.411 93.9904C321.011 94.6904 321.711 96.5904 320.911 98.1904C320.511 99.3904 319.311 100.09 318.111 100.09ZM178.211 99.3904C177.011 99.3904 175.811 98.6904 175.311 97.4904C174.611 95.8904 175.311 93.9904 176.911 93.2904C177.311 93.0904 177.811 92.8904 178.211 92.6904C179.811 91.9904 181.711 92.6904 182.411 94.2904C183.111 95.8904 182.411 97.7904 180.811 98.4904C180.411 98.6904 180.011 98.8904 179.511 99.0904C179.111 99.2904 178.711 99.3904 178.211 99.3904ZM303.811 94.0904C303.411 94.0904 303.111 93.9904 302.711 93.8904C302.311 93.6904 301.811 93.5904 301.411 93.3904C299.711 92.7904 298.911 90.9904 299.511 89.3904C300.111 87.6904 301.911 86.8904 303.511 87.4904C304.011 87.6904 304.411 87.7904 304.911 87.9904C306.611 88.5904 307.411 90.3904 306.811 92.0904C306.311 93.2904 305.111 94.0904 303.811 94.0904ZM192.711 93.5904C191.411 93.5904 190.211 92.7904 189.711 91.4904C189.111 89.7904 190.011 87.9904 191.711 87.4904C192.211 87.2904 192.611 87.1904 193.111 86.9904C194.811 86.3904 196.611 87.2904 197.111 88.9904C197.711 90.6904 196.811 92.4904 195.111 92.9904C194.711 93.0904 194.211 93.2904 193.811 93.4904C193.411 93.4904 193.011 93.5904 192.711 93.5904ZM294.311 91.0904C294.011 91.0904 293.711 91.0904 293.411 90.9904C293.011 90.8904 292.511 90.6904 292.111 90.5904C290.411 90.0904 289.411 88.3904 289.911 86.6904C290.411 84.9904 292.111 83.9904 293.811 84.4904C294.311 84.5904 294.711 84.7904 295.211 84.8904C296.911 85.3904 297.811 87.1904 297.411 88.7904C297.011 90.1904 295.711 91.0904 294.311 91.0904ZM202.111 90.5904C200.711 90.5904 199.411 89.6904 199.011 88.2904C198.511 86.5904 199.511 84.8904 201.211 84.3904C201.711 84.2904 202.111 84.0904 202.611 83.9904C204.311 83.4904 206.011 84.4904 206.511 86.1904C207.011 87.8904 206.011 89.5904 204.311 90.0904C203.911 90.1904 203.411 90.2904 203.011 90.4904C202.711 90.5904 202.411 90.5904 202.111 90.5904ZM279.211 87.3904C279.011 87.3904 278.811 87.3904 278.611 87.2904C278.111 87.1904 277.711 87.0904 277.211 86.9904C275.511 86.6904 274.311 84.9904 274.711 83.2904C275.111 81.5904 276.711 80.3904 278.411 80.7904C278.911 80.8904 279.311 80.9904 279.811 81.0904C281.511 81.3904 282.711 83.0904 282.311 84.7904C282.011 86.2904 280.711 87.3904 279.211 87.3904ZM217.311 87.0904C215.811 87.0904 214.511 85.9904 214.211 84.4904C213.911 82.7904 215.011 81.0904 216.711 80.7904C217.211 80.6904 217.611 80.5904 218.111 80.4904C219.811 80.1904 221.511 81.3904 221.811 83.0904C222.111 84.7904 220.911 86.4904 219.211 86.7904C218.711 86.8904 218.311 86.9904 217.811 86.9904C217.711 87.0904 217.511 87.0904 217.311 87.0904ZM269.411 85.7904C269.311 85.7904 269.111 85.7904 269.011 85.7904C268.511 85.6904 268.111 85.6904 267.611 85.5904C265.911 85.3904 264.611 83.7904 264.811 82.0904C265.011 80.3904 266.611 79.0904 268.311 79.2904C268.811 79.3904 269.311 79.3904 269.711 79.4904C271.411 79.6904 272.711 81.2904 272.411 83.0904C272.411 84.5904 271.011 85.7904 269.411 85.7904ZM227.111 85.5904C225.511 85.5904 224.111 84.3904 224.011 82.7904C223.811 81.0904 225.011 79.4904 226.811 79.2904C227.311 79.1904 227.811 79.1904 228.211 79.0904C229.911 78.8904 231.511 80.1904 231.711 81.8904C231.911 83.5904 230.611 85.1904 228.911 85.3904C228.411 85.4904 228.011 85.4904 227.511 85.5904C227.411 85.5904 227.211 85.5904 227.111 85.5904ZM253.911 84.4904H253.811C253.311 84.4904 252.911 84.4904 252.411 84.4904C250.611 84.3904 249.311 82.9904 249.311 81.1904C249.411 79.3904 250.811 78.0904 252.611 78.0904C253.111 78.0904 253.611 78.0904 254.011 78.0904C255.811 78.1904 257.111 79.5904 257.111 81.3904C257.011 83.0904 255.611 84.4904 253.911 84.4904ZM242.611 84.3904C240.911 84.3904 239.511 82.9904 239.411 81.2904C239.411 79.4904 240.711 78.0904 242.511 77.9904C243.011 77.9904 243.511 77.9904 243.911 77.9904C245.611 77.9904 247.111 79.3904 247.111 81.0904C247.111 82.8904 245.711 84.2904 244.011 84.2904C243.611 84.3904 243.211 84.3904 242.611 84.3904C242.611 84.3904 242.711 84.3904 242.611 84.3904Z"
     fill="black"
     id="path2" />
  <path
     d="M247.511 429.59C147.111 429.59 65.3107 347.89 65.3107 247.39C65.3107 146.99 147.011 65.1904 247.511 65.1904C348.011 65.1904 429.711 146.99 429.711 247.39C429.711 347.89 347.911 429.59 247.511 429.59ZM247.511 71.5904C150.511 71.5904 71.7107 150.49 71.7107 247.39C71.7107 344.39 150.511 423.19 247.511 423.19C344.511 423.19 423.311 344.29 423.311 247.39C423.311 150.49 344.411 71.5904 247.511 71.5904Z"
     fill="black"
     id="path4" />
  <path
     d="M82.2107 362.79L79.7107 349.59L77.2107 362.79L64.4107 358.39L74.6107 367.19L64.4107 375.99L77.2107 371.59L79.7107 384.79L82.2107 371.59L95.0107 375.99L84.8107 367.19L95.0107 358.39L82.2107 362.79Z"
     fill="black"
     id="path6" />
  <path
     d="M430.711 358.39L417.911 362.79L415.411 349.59L412.911 362.79L400.111 358.39L410.311 367.19L400.111 375.99L412.911 371.59L415.411 384.79L417.911 371.59L430.711 375.99L420.511 367.19L430.711 358.39Z"
     fill="black"
     id="path8" />
  <path
     d="M97.8107 232.09C98.4107 226.49 102.911 222.89 108.211 223.39C113.611 223.89 117.411 228.39 116.911 233.99C116.311 239.59 111.711 243.19 106.311 242.69C100.911 242.19 97.2107 237.69 97.8107 232.09ZM112.711 233.59C113.011 230.79 110.811 228.39 107.711 228.09C104.711 227.79 102.211 229.79 101.911 232.49C101.611 235.29 103.711 237.69 106.711 237.99C109.811 238.39 112.411 236.39 112.711 233.59Z"
     fill="black"
     id="path10" />
  <path
     d="M101.711 210.49L103.611 204.29C104.111 202.49 104.511 201.69 105.111 200.99C106.511 199.19 108.711 198.49 111.211 199.29C113.111 199.89 114.911 201.39 115.211 203.39C115.211 203.39 115.611 203.19 116.511 203.09L123.711 201.49L122.211 206.29L115.311 207.69L114.711 209.69L120.711 211.49L119.411 215.79L101.711 210.49ZM111.611 206.69C112.011 205.29 111.511 204.19 110.111 203.79C108.811 203.39 107.811 203.69 107.211 205.79L106.811 207.29L111.111 208.59L111.611 206.69Z"
     fill="black"
     id="path12" />
  <path
     d="M114.111 177.59C116.311 173.39 119.611 172.39 119.611 172.39L121.611 175.89C121.611 175.89 119.211 176.79 118.011 179.09C116.211 182.59 117.711 185.09 120.111 186.39C123.211 187.99 126.211 186.79 127.511 184.29C128.511 182.39 128.011 180.29 128.011 180.29L126.711 179.59L125.511 181.89L122.111 180.09L125.111 174.19L134.411 178.99L132.711 182.39L132.211 182.19C131.911 181.99 131.511 181.79 131.511 181.79C131.511 181.79 132.111 184.09 130.711 186.89C128.511 191.09 123.411 193.29 118.011 190.59C113.311 188.19 111.511 182.59 114.111 177.59Z"
     fill="black"
     id="path14" />
  <path
     d="M142.211 161.79L138.711 166.39L141.111 169.69L138.211 173.39L127.411 157.09L130.311 153.29L148.811 159.69L145.911 163.39L142.211 161.79ZM132.211 157.69C132.211 157.69 133.511 159.29 134.311 160.19L136.511 163.19L138.711 160.29L135.211 158.89C134.111 158.59 132.211 157.69 132.211 157.69Z"
     fill="black"
     id="path16" />
  <path
     d="M141.911 140.19L145.311 137.19L154.911 140.29C156.311 140.69 158.211 141.59 158.211 141.59C158.211 141.59 156.711 140.19 155.911 139.39L150.211 132.89L153.611 129.89L165.911 143.69L162.511 146.69L152.911 143.69C151.511 143.29 149.611 142.39 149.611 142.39C149.611 142.39 151.111 143.79 151.911 144.59L157.611 150.99L154.211 153.99L141.911 140.19Z"
     fill="black"
     id="path18" />
  <path
     d="M164.211 122.19L168.011 119.69L178.011 135.29L174.211 137.79L164.211 122.19Z"
     fill="black"
     id="path20" />
  <path
     d="M184.611 128.09L186.911 115.89C187.211 114.49 187.511 113.79 187.511 113.79C187.511 113.79 187.011 114.09 186.211 114.49L180.011 117.29L178.411 113.79L191.111 107.99L192.311 110.49L190.011 122.69C189.711 124.09 189.411 124.79 189.411 124.79C189.411 124.79 189.911 124.49 190.711 124.09L197.311 121.09L198.911 124.59L185.811 130.59L184.611 128.09Z"
     fill="black"
     id="path22" />
  <path
     d="M202.611 103.89L213.811 100.89L214.811 104.59L208.011 106.49L208.911 109.79L214.311 108.29L215.311 111.99L209.911 113.49L210.811 116.89L218.011 114.99L219.011 118.69L207.411 121.79L202.611 103.89Z"
     fill="black"
     id="path24" />
  <path
     d="M294.211 104.39L298.411 105.99L294.211 116.89C293.511 118.69 294.311 120.09 296.111 120.79C297.911 121.49 299.511 120.99 300.211 119.19L304.411 108.29L308.611 109.89L304.411 120.79C302.911 124.69 299.011 126.29 294.611 124.69C290.211 122.99 288.411 119.09 289.911 115.19L294.211 104.39Z"
     fill="black"
     id="path26" />
  <path
     d="M324.311 118.19L328.111 120.79L327.511 130.79C327.411 132.19 327.011 134.29 327.011 134.29C327.011 134.29 327.911 132.49 328.611 131.59L333.411 124.39L337.211 126.89L326.911 142.29L323.111 139.79L323.611 129.79C323.711 128.39 324.111 126.29 324.111 126.29C324.111 126.29 323.211 128.09 322.511 128.99L317.711 136.19L313.911 133.69L324.311 118.19Z"
     fill="black"
     id="path28" />
  <path
     d="M350.411 138.09L353.711 141.29L340.711 154.59L337.411 151.39L350.411 138.09Z"
     fill="black"
     id="path30" />
  <path
     d="M364.011 159.09L360.711 154.59L363.811 152.29L373.111 164.99L370.011 167.29L366.711 162.79L354.911 171.39L352.211 167.69L364.011 159.09Z"
     fill="black"
     id="path32" />
  <path
     d="M380.811 178.39L385.711 188.89L382.211 190.59L379.211 184.19L376.211 185.59L378.611 190.69L375.111 192.39L372.711 187.29L369.511 188.79L372.711 195.49L369.211 197.19L364.111 186.39L380.811 178.39Z"
     fill="black"
     id="path34" />
  <path
     d="M123.511 294.89L128.011 305.29L124.511 306.79L121.711 300.39L118.711 301.69L120.911 306.79L117.411 308.29L115.211 303.19L112.111 304.59L115.011 311.29L111.511 312.79L106.811 301.99L123.511 294.89Z"
     fill="black"
     id="path36" />
  <path
     d="M123.511 322.79C123.511 322.79 123.011 325.49 124.311 327.49C124.811 328.29 125.611 328.89 126.511 328.29C128.311 327.09 123.811 320.29 128.511 317.29C131.311 315.49 134.711 316.59 136.711 319.69C138.811 322.99 138.211 325.69 138.211 325.69L134.111 326.09C134.111 326.09 134.411 323.69 133.311 321.89C132.811 321.09 131.911 320.49 131.111 321.09C129.211 322.29 134.011 328.99 129.211 332.09C126.711 333.69 123.211 333.19 121.011 329.79C118.711 326.19 119.611 322.79 119.611 322.79H123.511Z"
     fill="black"
     id="path38" />
  <path
     d="M145.911 338.39L142.211 334.39L145.011 331.79L155.511 343.09L152.711 345.69L149.011 341.69L138.511 351.49L135.511 348.19L145.911 338.39Z"
     fill="black"
     id="path40" />
  <path
     d="M152.911 359.29L156.111 361.89L153.511 365.09L150.311 362.49L152.911 359.29Z"
     fill="black"
     id="path42" />
  <path
     d="M179.411 377.59L182.911 379.19L186.111 372.39C186.411 371.79 186.711 371.09 186.711 371.09C186.711 371.09 186.311 371.49 185.611 371.69L184.211 372.09L183.111 368.49L189.511 366.39L193.011 367.99L186.911 380.99L190.411 382.69L188.711 386.19L177.811 380.99L179.411 377.59Z"
     fill="black"
     id="path44" />
  <path
     d="M200.011 390.29L202.211 386.99C202.211 386.99 203.211 387.79 204.411 388.19C206.511 388.79 208.011 387.79 209.011 386.39C208.511 386.59 207.311 386.59 206.411 386.29C202.811 385.29 201.511 381.69 202.411 378.69C203.211 375.69 206.211 373.39 210.011 374.49C213.511 375.49 216.311 379.19 214.711 384.79C213.411 389.49 209.111 393.69 203.611 392.09C201.211 391.39 200.011 390.29 200.011 390.29ZM210.611 382.49C211.211 380.39 210.111 378.59 208.911 378.29C207.811 377.99 206.911 378.69 206.611 379.79C206.211 380.99 206.611 382.59 208.511 383.09C209.511 383.39 210.411 383.29 210.611 382.49Z"
     fill="black"
     id="path46" />
  <path
     d="M227.211 391.29C227.211 391.29 228.611 393.09 230.711 393.29C232.311 393.49 233.411 392.79 233.511 391.79C233.611 390.39 232.311 389.69 230.311 389.49L229.011 389.39L228.311 387.19L231.011 384.59C232.011 383.69 232.711 383.09 232.711 383.09V382.99C232.711 382.99 232.111 383.09 231.011 382.99L226.711 382.59L227.111 378.79L238.511 379.99L238.211 382.79L234.111 386.59C236.711 387.49 238.211 389.69 237.911 392.29C237.611 395.39 235.111 398.19 230.611 397.79C226.611 397.39 224.711 394.79 224.711 394.79L227.211 391.29Z"
     fill="black"
     id="path48" />
  <path
     d="M257.511 384.89C258.011 383.59 258.611 383.19 258.611 383.19V383.09C258.611 383.09 258.411 383.19 257.411 383.29L250.311 383.79L250.011 379.99L263.011 379.09L263.211 382.19L256.611 397.69L252.011 397.99L257.511 384.89Z"
     fill="black"
     id="path50" />
  <path
     d="M310.811 363.89L316.311 360.49C321.211 357.49 326.011 358.39 329.011 363.29C332.011 368.19 330.711 372.99 325.811 375.99L320.311 379.39L310.811 363.89ZM323.611 372.89C326.211 371.29 326.911 368.79 325.011 365.79C323.211 362.89 320.611 362.39 318.011 363.89L316.411 364.89L321.911 373.89L323.611 372.89Z"
     fill="black"
     id="path52" />
  <path
     d="M332.611 348.99L341.011 341.39L343.611 344.19L338.511 348.79L340.711 351.19L344.811 347.49L347.411 350.29L343.311 353.99L345.611 356.49L351.011 351.59L353.611 354.39L344.911 362.29L332.611 348.99Z"
     fill="black"
     id="path54" />
  <path
     d="M348.611 333.19L355.511 324.49L358.511 326.89L354.411 332.09L357.411 334.49L360.811 330.19L363.811 332.59L360.411 336.89L365.711 341.09L363.011 344.59L348.611 333.19Z"
     fill="black"
     id="path56" />
  <path
     d="M361.211 315.69L366.711 305.69L370.011 307.49L366.711 313.59L369.611 315.19L372.311 310.29L375.611 312.09L372.911 316.99L375.911 318.59L379.411 312.19L382.711 313.99L377.111 324.29L361.211 315.69Z"
     fill="black"
     id="path58" />
  <path
     d="M371.211 295.59L372.611 291.29L382.211 289.19C383.611 288.89 385.611 288.69 385.611 288.69C385.611 288.69 383.711 288.29 382.611 287.89L374.511 285.29L375.911 281.09L393.111 286.69L391.711 290.89L382.111 293.09C380.711 293.39 378.711 293.59 378.711 293.59C378.711 293.59 380.611 293.99 381.711 294.39L389.711 296.99L388.311 301.19L371.211 295.59Z"
     fill="black"
     id="path60" />
  <path
     d="M378.411 269.59L379.111 263.19C379.811 257.49 383.511 254.29 389.111 254.89C394.811 255.59 397.711 259.59 397.111 265.19L396.411 271.59L378.411 269.59ZM393.411 264.99C393.811 261.99 392.211 259.89 388.711 259.49C385.311 259.09 383.311 260.79 382.911 263.79L382.711 265.59L393.211 266.79L393.411 264.99Z"
     fill="black"
     id="path62" />
  <path
     d="M108.911 272.79C111.23 272.79 113.111 270.91 113.111 268.59C113.111 266.271 111.23 264.39 108.911 264.39C106.591 264.39 104.711 266.271 104.711 268.59C104.711 270.91 106.591 272.79 108.911 272.79Z"
     fill="black"
     id="path64" />
  <path
     d="m 386.4,230.29 c 2.319,0 4.2,-1.88 4.2,-4.2 0,-2.319 -1.881,-4.2 -4.2,-4.2 -2.32,0 -4.2,1.881 -4.2,4.2 0,2.32 1.88,4.2 4.2,4.2 z"
     fill="#000000"
     id="path66" />
  <path
     d="M289.111 386.89C291.43 386.89 293.311 385.01 293.311 382.69C293.311 380.371 291.43 378.49 289.111 378.49C286.791 378.49 284.911 380.371 284.911 382.69C284.911 385.01 286.791 386.89 289.111 386.89Z"
     fill="black"
     id="path68" />
  <path
     d="M223.011 205.49L224.511 200.79C224.611 200.59 230.011 184.09 245.811 173.19C253.411 167.89 262.411 163.59 268.111 158.39C272.811 153.99 275.411 145.39 274.911 135.99C274.411 126.89 270.511 109.49 250.411 94.6904L244.111 90.0904L247.011 97.3904C255.811 119.49 248.611 142.49 243.111 146.49C241.911 145.89 239.611 141.39 238.311 136.99L237.411 134.09L234.911 135.69C234.511 135.99 225.111 142.09 218.611 153.29C212.511 163.69 207.911 180.49 220.611 201.29L223.011 205.49ZM234.811 141.29C236.111 144.79 238.511 149.69 241.611 150.79C242.911 151.29 244.311 151.09 245.511 150.19C249.611 147.39 253.211 139.29 254.711 129.49C256.111 120.69 255.611 111.59 253.511 103.09C267.111 115.49 270.011 128.89 270.411 136.29C270.911 144.29 268.811 151.69 265.111 155.09C259.811 160.09 251.311 163.99 243.311 169.49C231.311 177.79 225.011 188.89 222.111 194.99C207.411 166.29 227.611 146.99 234.811 141.29Z"
     fill="black"
     id="path70" />
  <path
     d="M343.011 211.59L345.211 209.89L345.111 208.59C344.111 198.89 337.511 190.69 328.311 187.49L326.711 187.39L324.911 188.89C306.211 203.79 284.311 221.89 262.711 239.89C263.611 232.39 265.611 219.49 265.611 219.49L266.211 218.99C282.811 206.29 292.811 176.39 281.711 153.69L277.411 144.89V154.69C277.411 166.99 270.111 179.59 265.211 182.09C261.111 184.19 257.011 181.09 259.911 174.39L261.911 168.99L256.811 171.59C255.711 172.09 230.411 185.19 226.111 202.49C224.711 208.29 225.711 213.79 229.211 218.99L230.011 232.89C208.311 214.99 188.211 197.39 174.611 184.09L174.111 183.59L173.411 183.49C159.611 180.79 149.911 193.19 149.311 195.39L148.911 196.79C148.911 196.79 152.511 199.69 153.811 200.79C146.811 210.09 147.011 219.69 148.911 223.79L149.211 224.39L149.611 224.69C149.611 224.69 218.611 276.19 218.711 276.29C207.811 285.19 186.811 302.69 186.811 302.69L163.011 339.69L204.411 324.89C204.411 324.89 224.111 309.29 233.511 301.79L236.911 366.89H254.011V364.59C254.211 352.99 255.111 331.39 256.711 307.29C266.411 315.49 275.511 323.29 283.411 330.49C283.611 330.69 283.711 330.79 283.911 330.99C285.011 331.99 286.111 332.99 287.111 333.89C289.511 336.09 291.811 338.29 293.911 340.29C297.811 344.09 302.211 347.59 307.711 347.59C308.011 347.59 308.211 347.59 308.511 347.59C314.011 347.29 320.411 343.89 326.711 335.99C330.811 330.89 332.711 322.99 331.811 317.49C330.511 309.09 323.211 303.99 317.211 300.19C315.911 299.39 314.711 298.59 313.711 297.89C302.311 289.79 288.611 279.49 274.011 268.19C274.111 268.09 274.211 267.99 274.311 267.89C298.011 248.19 322.411 227.99 343.011 211.59ZM340.211 206.89C334.411 204.19 330.211 198.89 328.911 192.59C334.611 195.39 338.811 200.69 340.211 206.89ZM324.711 194.69C326.511 201.39 331.111 207.09 337.211 210.39C334.111 212.89 330.911 215.49 327.711 218.09C321.111 215.39 316.311 209.39 315.111 202.39C318.411 199.79 321.611 197.19 324.711 194.69ZM230.411 203.59C233.211 192.19 247.411 182.29 254.611 177.99C254.511 180.09 254.811 182.39 256.111 184.29C257.111 185.79 259.511 187.89 263.311 187.49C267.211 187.19 277.411 181.99 280.711 164.79C284.411 182.09 275.111 203.39 266.611 212.59C256.911 223.09 240.511 221.09 234.311 216.99C229.911 213.89 229.311 208.09 230.411 203.59ZM260.511 222.79C259.511 229.19 258.511 236.39 257.711 243.99C257.211 244.39 256.811 244.79 256.311 245.09C254.511 246.59 252.611 248.09 250.811 249.69C245.411 245.39 240.111 240.99 234.811 236.69L234.011 222.09C242.811 226.19 253.011 226.39 260.511 222.79ZM188.111 308.89C190.011 314.39 193.711 318.99 198.611 322.09L174.011 330.89L188.111 308.89ZM233.311 296.09C223.111 304.49 213.211 312.49 204.111 319.79C197.511 317.09 192.811 311.09 191.611 304.09C201.211 296.39 222.411 279.09 222.411 279.09C222.411 279.09 229.811 284.99 232.911 287.49C234.511 288.79 238.111 291.69 238.411 291.99C238.211 292.19 237.911 292.39 237.711 292.59C236.211 293.79 234.711 294.89 233.311 296.09ZM252.511 303.59C250.911 327.59 250.011 349.59 249.611 362.39H241.211L237.911 298.09C239.211 296.99 240.611 295.89 241.911 294.79C245.511 297.79 249.011 300.69 252.511 303.59ZM314.311 303.49C314.511 303.59 314.711 303.79 314.911 303.89C320.411 307.49 326.811 312.09 327.811 318.39C328.511 322.49 327.011 328.49 322.711 333.79C317.211 340.59 312.611 342.69 308.411 342.89C304.311 343.09 300.611 340.19 297.311 336.99C296.411 335.79 295.911 329.69 298.811 323.29C302.811 326.59 312.011 334.79 312.011 334.79C312.011 334.79 320.611 327.59 319.811 319.49C319.511 316.29 318.411 313.69 316.311 312.19C313.511 310.09 307.111 305.29 299.111 314.39C294.411 319.79 292.211 326.69 292.011 332.19C292.011 332.19 291.911 332.19 291.911 332.09C291.311 331.59 258.511 302.79 257.311 301.79C257.211 301.69 221.611 272.79 221.311 272.49C220.411 271.79 153.311 221.69 152.811 221.29C151.811 218.29 151.911 210.89 157.311 203.49C174.911 217.69 283.111 304.29 292.611 311.99L294.511 313.49L295.911 311.59C296.311 311.29 302.811 302.49 314.311 303.49ZM301.011 319.39C301.511 318.69 302.011 317.99 302.611 317.39C309.311 310.29 315.411 316.39 315.311 319.69C315.211 322.69 314.111 326.19 312.011 328.69C308.311 325.59 304.711 322.49 301.011 319.39ZM308.111 299.29C301.011 300.59 296.111 304.79 293.811 307.29C284.311 299.59 226.311 253.19 223.911 251.19C198.611 230.99 172.411 210.09 154.511 195.49C156.811 192.59 163.311 186.49 171.911 187.79C186.211 201.79 207.511 220.29 230.211 238.89C231.811 240.19 233.311 241.49 234.911 242.79C238.911 246.09 269.211 270.19 270.411 271.09C284.211 281.69 297.111 291.39 308.111 299.29ZM270.511 265.29C267.311 262.79 255.111 253.19 254.411 252.59C255.311 251.89 295.611 218.29 311.311 205.59C313.111 212.29 317.711 217.99 323.911 221.29C307.211 234.69 270.811 264.99 270.511 265.29Z"
     fill="black"
     id="path72" />
  <path
     d="M494.411 254.49C495.511 252.09 494.711 249.49 492.711 248.19L484.311 242.49L492.411 236.59C493.211 235.99 493.811 235.29 494.211 234.39C495.111 231.99 494.111 229.39 492.011 228.29L483.111 223.29L490.711 216.69C491.411 216.09 492.011 215.29 492.311 214.29C493.011 211.79 491.811 209.29 489.611 208.39L480.411 204.19L487.411 196.99C488.111 196.29 488.611 195.39 488.811 194.49C489.311 191.89 487.911 189.59 485.611 188.79L476.111 185.29L482.511 177.59C483.111 176.89 483.611 175.99 483.711 174.99C484.011 172.39 482.411 170.19 480.111 169.59L470.311 166.89L476.111 158.69C476.711 157.89 477.011 156.99 477.111 155.99C477.211 153.39 475.411 151.29 473.111 150.89L463.111 148.99L468.211 140.29C468.711 139.49 469.011 138.49 468.911 137.49C468.811 134.89 466.811 132.99 464.411 132.69L454.311 131.69L458.611 122.69C459.011 121.79 459.211 120.79 459.111 119.89C458.811 117.29 456.611 115.59 454.311 115.49L444.111 115.29L447.711 105.89C448.111 104.99 448.211 103.99 448.011 102.99C447.411 100.49 445.211 98.8904 442.811 98.9904L432.711 99.5904L435.511 89.9904C435.811 89.0904 435.811 88.0904 435.611 87.0904C434.911 84.5904 432.511 83.1904 430.111 83.4904L420.011 84.8904L422.011 75.0904C422.211 74.0904 422.211 73.0904 421.811 72.1904C420.811 69.7904 418.411 68.5904 416.111 69.0904L406.211 71.2904L407.411 61.3904C407.511 60.3904 407.411 59.3904 407.011 58.5904C405.911 56.2904 403.311 55.2904 401.011 55.9904L391.311 58.9904L391.711 48.9904C391.711 47.9904 391.611 46.9904 391.111 46.1904C389.811 43.9904 387.111 43.1904 384.911 44.0904L375.511 47.8904L375.111 37.8904C375.111 36.8904 374.811 35.9904 374.211 35.1904C372.711 33.0904 370.011 32.4904 367.911 33.5904L358.811 38.1904L357.611 28.2904C357.511 27.2904 357.111 26.3904 356.511 25.5904C354.811 23.5904 352.111 23.2904 350.111 24.4904L341.411 29.7904L339.411 19.9904C339.211 18.9904 338.811 18.0904 338.111 17.3904C336.311 15.5904 333.511 15.3904 331.611 16.8904L323.411 22.8904L320.611 13.2904C320.311 12.3904 319.811 11.4904 319.111 10.7904C317.111 9.0904 314.411 9.1904 312.611 10.7904L304.911 17.3904L301.311 8.0904C300.911 7.1904 300.411 6.3904 299.611 5.7904C297.511 4.2904 294.811 4.5904 293.111 6.2904L286.011 13.4904L281.611 4.3904C281.311 3.7904 280.911 3.0904 280.311 2.6904C278.011 0.890403 275.011 1.3904 273.311 3.3904L266.811 11.1904L261.711 2.5904C261.111 1.5904 260.211 0.690403 259.011 0.290403C256.811 -0.409597 254.511 0.390402 253.311 2.0904L247.511 10.3904L241.711 2.1904C241.111 1.3904 240.411 0.690403 239.511 0.390403C237.111 -0.609597 234.511 0.390402 233.311 2.4904L228.211 11.2904L221.811 3.5904C221.211 2.8904 220.411 2.1904 219.411 1.9904C216.911 1.1904 214.411 2.3904 213.411 4.5904L209.011 13.6904L202.011 6.4904C201.311 5.7904 200.511 5.2904 199.511 4.9904C196.911 4.3904 194.611 5.7904 193.711 7.9904L190.011 17.4904L182.411 10.8904C181.711 10.2904 180.811 9.7904 179.811 9.6904C177.211 9.3904 175.011 10.8904 174.311 13.1904L171.411 22.8904L163.311 16.9904C162.511 16.3904 161.611 15.9904 160.611 15.9904C158.011 15.8904 155.911 17.5904 155.411 19.8904L153.311 29.7904L144.811 24.5904C144.011 24.0904 143.011 23.7904 142.011 23.7904C139.411 23.8904 137.411 25.7904 137.111 28.1904L135.911 38.2904L127.011 33.7904C126.111 33.3904 125.211 33.0904 124.211 33.1904C121.611 33.4904 119.811 35.5904 119.711 37.8904L119.311 47.9904L110.011 44.1904C109.111 43.7904 108.111 43.6904 107.211 43.8904C104.611 44.3904 103.011 46.5904 103.111 48.9904L103.511 59.0904L93.9107 56.0904C93.0107 55.7904 92.0107 55.6904 91.0107 55.9904C88.5107 56.6904 87.1107 58.9904 87.3107 61.3904L88.7107 71.4904L78.8107 69.1904C76.5107 68.6904 74.0107 69.8904 73.1107 72.2904C72.7107 73.1904 72.7107 74.1904 72.9107 75.1904L74.9107 84.9904L64.8107 83.5904C62.4107 83.2904 60.1107 84.5904 59.3107 87.0904C59.0107 87.9904 59.1107 88.9904 59.4107 89.9904L62.2107 99.5904L52.1107 98.9904C49.7107 98.8904 47.4107 100.49 46.9107 103.19C46.7107 104.09 46.9107 104.99 47.2107 105.79L50.8107 115.19L40.8107 115.39C39.8107 115.39 38.9107 115.69 38.0107 116.19C35.8107 117.69 35.2107 120.29 36.3107 122.49L40.7107 131.69L30.7107 132.69C29.7107 132.79 28.8107 133.09 28.0107 133.69C26.0107 135.29 25.6107 138.09 26.8107 140.09L31.9107 148.89L22.0107 150.69C21.0107 150.89 20.1107 151.29 19.4107 151.89C17.5107 153.69 17.3107 156.39 18.7107 158.39L24.5107 166.69L14.8107 169.29C13.9107 169.59 13.0107 169.99 12.3107 170.79C10.6107 172.79 10.6107 175.49 12.1107 177.29L18.6107 185.09L9.21068 188.49C8.31068 188.79 7.41068 189.39 6.91068 190.19C5.31068 192.29 5.61068 194.99 7.31068 196.69L14.4107 203.99L5.31068 208.19C4.41068 208.59 3.61068 209.19 3.11068 209.99C1.71068 212.19 2.21068 214.89 4.01068 216.49L11.7107 223.19L3.01068 228.09C2.21068 228.59 1.41068 229.19 1.01068 230.09C-0.189317 232.39 0.510682 235.09 2.41068 236.49L10.6107 242.49L2.31068 248.09C1.51068 248.59 0.810682 249.39 0.410682 250.29C-0.589318 252.69 0.310683 255.29 2.31068 256.49L10.9107 261.79L3.11068 268.09C2.31068 268.69 1.71068 269.49 1.41068 270.39C0.610682 272.89 1.71068 275.39 3.81068 276.39L12.9107 280.99L5.61068 287.89C4.91068 288.59 4.31068 289.39 4.11068 290.29C3.51068 292.79 4.81068 295.19 7.01068 296.09L16.4107 299.89L9.71068 307.29C9.01068 307.99 8.61068 308.89 8.41068 309.89C8.01068 312.49 9.51068 314.79 11.8107 315.49L21.5107 318.59L15.4107 326.59C14.8107 327.39 14.4107 328.29 14.3107 329.29C14.1107 331.89 15.8107 333.99 18.1107 334.59L28.0107 336.89L22.6107 345.29C22.1107 346.09 21.7107 347.09 21.7107 347.99C21.7107 350.59 23.6107 352.59 26.0107 352.89L36.0107 354.39L31.3107 363.29C30.8107 364.19 30.6107 365.09 30.7107 366.09C30.9107 368.69 33.0107 370.49 35.3107 370.69L45.4107 371.29L41.4107 380.49C41.0107 381.29 40.9107 382.19 41.0107 383.09C41.4107 385.79 43.6107 387.49 46.0107 387.49L56.2107 387.29L53.0107 396.79C52.7107 397.59 52.6107 398.49 52.8107 399.39C53.4107 402.09 55.7107 403.59 58.2107 403.39L68.3107 402.39L65.9107 412.09C65.7107 412.99 65.6107 414.09 66.0107 414.99C66.9107 417.49 69.3107 418.69 71.6107 418.29L81.6107 416.49L80.0107 426.39C79.8107 427.39 79.9107 428.39 80.3107 429.29C81.4107 431.69 83.9107 432.79 86.2107 432.09L96.0107 429.39L95.2107 439.39C95.1107 440.39 95.3107 441.39 95.7107 442.19C96.9107 444.49 99.5107 445.39 101.811 444.59L111.411 441.19V451.19C111.411 452.19 111.611 453.19 112.211 453.99C113.611 456.19 116.311 456.79 118.511 455.89L127.711 451.69L128.511 461.69C128.611 462.69 128.911 463.59 129.511 464.39C131.111 466.39 133.811 466.89 135.911 465.69L144.811 460.79L146.411 470.69C146.611 471.69 146.911 472.59 147.611 473.29C149.411 475.19 152.111 475.39 154.111 474.09L162.511 468.39L164.911 478.09C165.111 478.99 165.611 479.89 166.311 480.59C168.211 482.39 171.011 482.39 172.811 480.89L180.711 474.59L183.911 484.09C184.211 484.99 184.711 485.89 185.511 486.49C187.611 488.09 190.311 487.89 192.011 486.29L199.411 479.39L203.411 488.59C203.811 489.49 204.411 490.29 205.211 490.79C207.411 492.19 210.111 491.79 211.711 489.99L218.511 482.49L223.211 491.39C223.511 491.99 224.011 492.59 224.511 493.09C226.911 494.89 229.911 494.29 231.511 492.19L237.711 484.09L243.111 492.49C243.611 493.29 244.311 493.99 245.211 494.39C247.611 495.49 250.211 494.59 251.511 492.59L257.011 484.09L263.111 492.09C263.711 492.89 264.511 493.49 265.411 493.79C267.911 494.69 270.411 493.59 271.511 491.49L276.311 482.49L283.011 489.89C283.711 490.59 284.511 491.19 285.411 491.39C287.911 492.09 290.311 490.79 291.311 488.59L295.311 479.29L302.611 486.19C303.311 486.89 304.211 487.39 305.111 487.49C307.711 487.99 310.011 486.49 310.711 484.19L314.011 474.59L321.811 480.79C322.611 481.39 323.511 481.79 324.411 481.89C327.011 482.09 329.211 480.49 329.811 478.19L332.311 468.39L340.611 473.99C341.411 474.49 342.311 474.89 343.311 474.89C345.911 474.89 347.911 473.09 348.311 470.69L350.011 460.69L358.811 465.59C359.611 466.09 360.611 466.39 361.611 466.29C364.211 466.09 366.111 464.09 366.311 461.69L367.111 451.59L376.211 455.69C377.211 456.19 378.311 456.29 379.411 456.09C381.811 455.59 383.411 453.49 383.411 451.19V440.99L393.011 444.39C395.211 445.19 397.811 444.29 399.111 442.09C399.611 441.19 399.711 440.29 399.611 439.29L398.811 429.29L408.611 431.99C410.911 432.59 413.411 431.49 414.511 429.19C414.911 428.29 415.011 427.29 414.811 426.29L413.211 416.39L423.211 418.19C425.511 418.59 428.011 417.29 428.811 414.89C429.111 413.99 429.111 412.99 428.911 411.99L426.511 402.29L436.611 403.29C439.011 403.59 441.411 401.99 442.011 399.29C442.211 398.39 442.111 397.49 441.811 396.69L438.611 387.09L448.811 387.29C451.211 387.29 453.311 385.69 453.811 383.09C454.011 382.09 453.811 381.09 453.411 380.19L449.411 370.99L459.411 370.39C460.411 370.29 461.311 370.09 462.111 369.49C464.211 367.89 464.711 365.19 463.611 363.09L458.811 354.09L468.711 352.69C469.711 352.59 470.611 352.19 471.311 351.59C473.311 349.89 473.511 347.09 472.211 345.09L466.711 336.59L476.511 334.39C477.411 334.19 478.411 333.69 479.011 332.99C480.811 331.09 480.911 328.39 479.411 326.49L473.211 318.39L482.811 315.39C483.711 315.09 484.611 314.59 485.211 313.79C486.911 311.79 486.711 308.99 485.111 307.29L478.311 299.79L487.611 295.99C488.511 295.59 489.311 295.09 489.911 294.29C491.411 292.19 491.011 289.39 489.311 287.79L481.911 280.79L491.011 276.19C493.111 275.09 494.311 272.59 493.411 270.19C493.111 269.29 492.511 268.49 491.711 267.89L483.911 261.59L492.411 256.29C493.311 255.99 494.011 255.29 494.411 254.49ZM247.511 477.59C120.411 477.59 17.3107 374.49 17.3107 247.39C17.3107 120.29 120.311 17.1904 247.511 17.1904C374.711 17.1904 477.711 120.29 477.711 247.39C477.711 374.49 374.611 477.59 247.511 477.59Z"
     fill="black"
     id="path74" />
  <path
     d="M40.4107 327.29C37.6107 320.19 40.2107 314.89 40.2107 314.89L46.8107 315.99C46.8107 315.99 45.1107 320.39 46.7107 324.39C48.9107 329.89 54.0107 330.89 58.1107 329.19C62.4107 327.49 65.6107 322.89 63.5107 317.59C61.8107 313.29 56.9107 311.39 56.9107 311.39L60.6107 305.69C60.6107 305.69 67.0107 307.79 70.0107 315.29C73.6107 324.29 69.6107 332.89 61.1107 336.29C52.8107 339.79 43.8107 335.89 40.4107 327.29Z"
     fill="black"
     id="path76" />
  <path
     d="M31.2107 296.99L30.0107 289.49L42.2107 287.49L40.4107 276.39L28.2107 278.39L27.0107 270.89L57.5107 265.79L58.7107 273.29L46.7107 275.29L48.5107 286.39L60.5107 284.39L61.7107 291.89L31.2107 296.99Z"
     fill="black"
     id="path78" />
  <path
     d="M26.0107 249.69L26.1107 242.09L57.1107 242.69L57.0107 250.29L26.0107 249.69Z"
     fill="black"
     id="path80" />
  <path
     d="M29.0107 208.09C30.3107 200.59 35.2107 197.39 35.2107 197.39L40.2107 201.79C40.2107 201.79 36.5107 204.69 35.8107 208.89C34.8107 214.69 38.7107 218.19 43.1107 218.99C47.6107 219.79 52.8107 217.59 53.7107 211.89C54.5107 207.29 51.3107 203.19 51.3107 203.19L57.4107 200.29C57.4107 200.29 61.8107 205.49 60.4107 213.39C58.8107 222.89 50.9107 228.19 41.9107 226.69C33.1107 225.19 27.5107 217.19 29.0107 208.09Z"
     fill="black"
     id="path82" />
  <path
     d="M65.4107 172.19L61.9107 181.19L67.3107 185.29L64.5107 192.59L39.4107 171.59L42.3107 164.19L75.0107 165.59L72.2107 172.89L65.4107 172.19ZM47.4107 170.39C47.4107 170.39 50.3107 172.29 51.9107 173.49L56.9107 177.29L59.1107 171.59L52.9107 170.99C50.8107 170.89 47.4107 170.39 47.4107 170.39Z"
     fill="black"
     id="path84" />
  <path
     d="M61.4107 126.49C65.7107 119.89 71.3107 118.69 71.3107 118.69L74.1107 124.79C74.1107 124.79 70.0107 125.89 67.6107 129.59C64.1107 134.99 66.1107 139.49 70.0107 141.99C74.9107 145.19 80.1107 143.69 82.7107 139.69C84.7107 136.69 84.2107 133.19 84.2107 133.19L82.2107 131.89L79.8107 135.59L74.4107 132.09L80.4107 122.79L95.1107 132.29L91.7107 137.59L91.0107 137.09C90.5107 136.69 89.9107 136.39 89.9107 136.39V136.49C89.9107 136.49 90.5107 140.49 87.7107 144.79C83.4107 151.39 74.5107 154.29 66.0107 148.79C58.5107 143.89 56.3107 134.39 61.4107 126.49Z"
     fill="black"
     id="path86" />
  <path
     d="M91.8107 89.4904C98.5107 82.9904 108.211 83.0904 114.411 89.3904C120.811 95.8904 120.911 105.69 114.211 112.29C107.511 118.89 97.7107 118.59 91.3107 112.09C85.1107 105.69 85.2107 95.9904 91.8107 89.4904ZM109.411 107.29C112.711 104.09 112.611 98.5904 108.911 94.7904C105.411 91.1904 100.011 91.0904 96.7107 94.2904C93.4107 97.4904 93.4107 102.89 97.0107 106.49C100.611 110.29 106.111 110.59 109.411 107.29Z"
     fill="black"
     id="path88" />
  <path
     d="M145.911 58.1904L137.611 62.4904L134.611 56.6904L158.011 44.6904L161.011 50.4904L152.711 54.7904L163.911 76.5904L157.211 80.0904L145.911 58.1904Z"
     fill="black"
     id="path90" />
  <path
     d="M174.011 38.5904L192.511 32.8904L194.411 39.0904L183.111 42.4904L184.711 47.8904L193.711 45.0904L195.611 51.2904L186.611 54.0904L188.311 59.6904L200.211 56.0904L202.111 62.2904L183.011 68.1904L174.011 38.5904Z"
     fill="black"
     id="path92" />
  <path
     d="M231.411 51.3904L221.811 52.3904L220.611 59.0904L212.911 59.8904L220.111 27.9904L228.011 27.1904L241.711 56.7904L234.011 57.5904L231.411 51.3904ZM224.811 34.5904C224.811 34.5904 224.511 37.9904 224.111 39.9904L223.011 46.1904L229.111 45.5904L226.811 39.7904C225.911 37.7904 224.911 34.5904 224.811 34.5904Z"
     fill="black"
     id="path94" />
  <path
     d="M268.811 26.7904C276.411 27.4904 280.011 32.0904 280.011 32.0904L276.011 37.4904C276.011 37.4904 272.811 34.0904 268.611 33.6904C262.711 33.1904 259.511 37.2904 259.111 41.7904C258.711 46.3904 261.311 51.2904 267.011 51.7904C271.711 52.1904 275.511 48.6904 275.511 48.6904L278.911 54.5904C278.911 54.5904 274.111 59.3904 266.111 58.6904C256.511 57.8904 250.511 50.4904 251.311 41.2904C252.111 32.2904 259.511 25.9904 268.811 26.7904Z"
     fill="black"
     id="path96" />
  <path
     d="M299.011 31.8904L306.211 34.0904L302.611 45.9904L313.411 49.1904L317.011 37.2904L324.211 39.4904L315.311 69.1904L308.111 66.9904L311.611 55.3904L300.811 52.1904L297.311 63.7904L290.111 61.5904L299.011 31.8904Z"
     fill="black"
     id="path98" />
  <path
     d="M343.011 47.6904L360.111 56.7904L357.111 62.4904L346.711 56.9904L344.111 61.9904L352.411 66.3904L349.411 72.0904L341.111 67.6904L338.411 72.8904L349.411 78.6904L346.411 84.3904L328.711 75.0904L343.011 47.6904Z"
     fill="black"
     id="path100" />
  <path
     d="M376.911 67.6904L385.311 74.3904C387.811 76.3904 388.811 77.4904 389.511 78.6904C391.411 81.8904 391.211 85.7904 388.311 89.2904C386.211 91.8904 382.811 93.6904 379.411 92.9904L379.311 93.0904C379.311 93.0904 379.311 93.7904 379.111 95.2904L377.011 107.49L370.411 102.19L372.611 90.5904L369.811 88.3904L363.311 96.5904L357.411 91.8904L376.911 67.6904ZM376.611 85.3904C378.511 86.8904 380.511 86.7904 382.011 84.8904C383.511 83.0904 383.611 81.4904 380.711 79.0904L378.711 77.4904L374.011 83.3904L376.611 85.3904Z"
     fill="black"
     id="path102" />
  <path
     d="M394.411 111.59C394.411 111.59 394.311 116.29 396.811 119.29C397.811 120.49 399.411 121.39 400.811 120.09C403.611 117.69 394.411 107.19 401.611 100.99C405.911 97.2904 411.911 98.3904 415.911 103.09C420.211 108.09 419.711 112.89 419.711 112.89L412.911 114.49C412.911 114.49 412.911 110.39 410.511 107.49C409.511 106.29 407.811 105.49 406.511 106.59C403.611 109.09 413.211 119.19 405.811 125.59C401.911 128.99 396.011 128.89 391.411 123.59C386.711 118.09 387.411 112.19 387.411 112.19L394.411 111.59Z"
     fill="black"
     id="path104" />
  <path
     d="M444.511 145.49L447.611 152.39L429.711 160.39C426.711 161.69 426.011 164.39 427.311 167.29C428.611 170.29 431.111 171.49 434.011 170.19L451.911 162.19L455.011 169.09L437.111 177.09C430.711 179.89 424.211 177.29 421.011 170.19C417.811 162.99 420.211 156.39 426.611 153.49L444.511 145.49Z"
     fill="black"
     id="path106" />
  <path
     d="M461.711 189.49L463.311 196.99L450.911 208.29C449.211 209.89 446.311 211.89 446.311 211.89V211.99C446.311 211.99 449.511 210.99 451.411 210.59L465.611 207.69L467.111 215.09L436.811 221.39L435.311 213.99L447.711 202.59C449.411 200.99 452.311 198.99 452.311 198.99V198.89C452.311 198.89 449.111 199.89 447.211 200.29L433.111 203.19L431.611 195.79L461.711 189.49Z"
     fill="black"
     id="path108" />
  <path
     d="M468.711 235.79L469.011 243.39L438.111 244.49L437.811 236.89L468.711 235.79Z"
     fill="black"
     id="path110" />
  <path
     d="M467.311 278.29C466.011 287.49 458.211 293.29 449.411 292.09C440.411 290.79 434.311 283.09 435.611 273.89C436.911 264.69 444.911 258.89 453.911 260.09C462.711 261.29 468.611 268.99 467.311 278.29ZM442.511 274.79C441.911 279.39 445.311 283.59 450.511 284.29C455.511 284.99 459.811 281.79 460.411 277.29C461.011 272.69 457.811 268.49 452.811 267.79C447.611 267.09 443.111 270.19 442.511 274.79Z"
     fill="black"
     id="path112" />
  <path
     d="M459.311 313.49L456.611 320.69L440.011 323.59C437.711 323.99 434.111 324.19 434.111 324.19V324.29C434.111 324.29 437.311 325.19 439.211 325.79L452.711 330.89L450.011 337.99L421.111 326.99L423.811 319.89L440.311 316.99C442.611 316.59 446.211 316.39 446.211 316.39V316.29C446.211 316.29 443.011 315.39 441.111 314.79L427.611 309.69L430.311 302.59L459.311 313.49Z"
     fill="black"
     id="path114" />
  <path
     d="M106.511 409.39L99.4107 402.89L93.7107 406.49L87.9107 401.29L116.511 385.39L122.411 390.69L109.411 420.69L103.611 415.49L106.511 409.39ZM114.611 393.29C114.611 393.29 111.811 395.29 110.111 396.39L104.711 399.69L109.211 403.79L112.011 398.19C112.911 396.29 114.711 393.29 114.611 393.29Z"
     fill="black"
     id="path116" />
  <path
     d="M134.311 400.49L150.011 411.09L146.411 416.49L137.011 410.09L133.411 415.49L141.211 420.79L137.611 426.19L129.811 420.89L123.411 430.39L117.111 426.19L134.311 400.49Z"
     fill="black"
     id="path118" />
  <path
     d="M163.211 425.09L154.611 421.29L157.311 415.39L181.311 426.19L178.611 432.09L170.011 428.29L160.011 450.59L153.111 447.49L163.211 425.09Z"
     fill="black"
     id="path120" />
  <path
     d="M202.911 432.39L210.311 433.79L205.711 457.79L218.111 460.19L216.911 466.59L197.111 462.79L202.911 432.39Z"
     fill="black"
     id="path122" />
  <path
     d="M243.611 436.89C252.911 437.09 259.611 444.19 259.511 452.99C259.311 462.09 252.311 469.09 243.011 468.89C233.711 468.69 227.011 461.49 227.111 452.39C227.311 443.49 234.311 436.69 243.611 436.89ZM243.111 461.99C247.711 462.09 251.511 458.19 251.611 452.89C251.711 447.79 248.111 443.89 243.411 443.89C238.811 443.79 235.011 447.49 234.911 452.59C234.911 457.79 238.511 461.89 243.111 461.99Z"
     fill="black"
     id="path124" />
  <path
     d="M282.311 433.79C289.811 432.49 294.511 436.09 294.511 436.09L292.011 442.29C292.011 442.29 288.111 439.79 283.811 440.49C278.011 441.49 275.911 446.29 276.711 450.69C277.511 455.19 281.311 459.39 286.911 458.39C291.511 457.59 294.311 453.19 294.311 453.19L299.111 457.99C299.111 457.99 295.711 463.89 287.711 465.19C278.211 466.79 270.511 461.19 269.011 452.09C267.511 443.39 273.111 435.39 282.311 433.79Z"
     fill="black"
     id="path126" />
  <path
     d="M324.611 447.79L315.511 451.09L315.911 457.79L308.611 460.39L308.111 427.69L315.611 424.99L335.911 450.59L328.611 453.19L324.611 447.79ZM314.111 432.99C314.111 432.99 314.611 436.39 314.711 438.39L315.111 444.69L320.811 442.59L317.111 437.49C316.011 435.99 314.211 432.99 314.111 432.99Z"
     fill="black"
     id="path128" />
  <path
     d="M331.911 418.09L338.511 414.39L350.311 435.79L361.411 429.69L364.511 435.39L346.811 445.09L331.911 418.09Z"
     fill="black"
     id="path130" />
  <path
     d="M383.411 413.89L388.311 409.49L379.711 399.89C378.911 398.99 378.111 398.09 378.111 398.09L378.011 398.19C378.011 398.19 378.311 399.09 378.211 400.19L377.911 402.69L371.511 402.09L372.511 390.69L377.411 386.39L393.711 404.69L398.611 400.29L402.911 405.19L387.711 418.69L383.411 413.89Z"
     fill="black"
     id="path132" />
</svg>
